<svg width="27" height="62" viewBox="0 0 27 62" fill="none" xmlns="http://www.w3.org/2000/svg">
<path d="M7.64243 13.0266L10.6706 15.7876C10.8764 15.9752 11.196 15.9639 11.3846 15.7625C11.4597 15.6823 11.5057 15.5797 11.5154 15.4706L11.8763 11.4381C11.8909 11.2748 11.9861 11.1297 12.1309 11.0501L15.7061 9.08379C15.9491 8.95018 16.0346 8.64679 15.8972 8.40613C15.8425 8.3103 15.7574 8.23468 15.6551 8.19098L11.8752 6.57571C11.7221 6.51031 11.6109 6.37507 11.5778 6.21407L10.7592 2.23786C10.7036 1.9677 10.4368 1.79141 10.1633 1.84411C10.0544 1.86509 9.95582 1.92095 9.88285 2.00305L7.18585 5.03725C7.07664 5.16011 6.9127 5.22162 6.74745 5.20174L2.6663 4.71064C2.38901 4.67727 2.13859 4.87171 2.10697 5.14493C2.09438 5.25373 2.11854 5.36388 2.17571 5.45832L4.2888 8.94883C4.37436 9.09016 4.38426 9.26342 4.31527 9.41213L2.61156 13.0848C2.4958 13.3344 2.60783 13.6308 2.86178 13.747C2.96291 13.7932 3.0764 13.8055 3.18471 13.7817L7.18767 12.9048C7.34976 12.8693 7.51982 12.9148 7.64243 13.0266Z" fill="#FFBC41"/>
<path d="M7.64243 58.3344L10.6706 61.0953C10.8764 61.2829 11.196 61.2717 11.3846 61.0703C11.4597 60.99 11.5057 60.8874 11.5154 60.7783L11.8763 56.7458C11.8909 56.5826 11.9861 56.4375 12.1309 56.3579L15.7061 54.3915C15.9491 54.2579 16.0346 53.9545 15.8972 53.7139C15.8425 53.618 15.7574 53.5424 15.6551 53.4987L11.8752 51.8835C11.7221 51.818 11.6109 51.6828 11.5778 51.5218L10.7592 47.5456C10.7036 47.2754 10.4368 47.0992 10.1633 47.1518C10.0544 47.1728 9.95582 47.2287 9.88285 47.3108L7.18585 50.345C7.07664 50.4679 6.9127 50.5294 6.74745 50.5095L2.6663 50.0184C2.38901 49.985 2.13859 50.1795 2.10697 50.4527C2.09438 50.5615 2.11854 50.6716 2.17571 50.7661L4.2888 54.2566C4.37436 54.3979 4.38426 54.5712 4.31527 54.7199L2.61156 58.3926C2.4958 58.6421 2.60783 58.9386 2.86178 59.0547C2.96291 59.101 3.0764 59.1132 3.18471 59.0895L7.18767 58.2125C7.34976 58.177 7.51982 58.2226 7.64243 58.3344Z" fill="#FFBC41"/>
<path d="M17.8159 36.6578L22.3378 38.9661C22.6451 39.1229 23.0251 39.0083 23.1866 38.7099C23.2509 38.5911 23.2731 38.4551 23.2498 38.3228L22.3862 33.4337C22.3512 33.2357 22.4188 33.0337 22.5669 32.8935L26.2252 29.431C26.4738 29.1957 26.4789 28.8094 26.2366 28.568C26.1401 28.4719 26.0137 28.4094 25.8769 28.3901L20.8212 27.6768C20.6165 27.6479 20.4396 27.523 20.348 27.3429L18.0871 22.8946C17.9334 22.5924 17.5566 22.4683 17.2453 22.6175C17.1214 22.6769 17.021 22.7743 16.9599 22.8946L14.6989 27.3429C14.6073 27.523 14.4304 27.6479 14.2257 27.6768L9.17002 28.3901C8.82651 28.4385 8.5885 28.7482 8.63842 29.0817C8.6583 29.2146 8.72271 29.3373 8.82169 29.431L12.48 32.8935C12.6281 33.0337 12.6957 33.2357 12.6608 33.4337L11.7971 38.3228C11.7385 38.655 11.9682 38.9705 12.3104 39.0274C12.4466 39.0501 12.5867 39.0286 12.7091 38.9661L17.231 36.6578C17.4141 36.5643 17.6328 36.5643 17.8159 36.6578Z" fill="#FFBC41"/>
</svg>
