<svg width="102" height="102" viewBox="0 0 102 102" fill="none" xmlns="http://www.w3.org/2000/svg">
<path fill-rule="evenodd" clip-rule="evenodd" d="M98.2227 58.6785C85.7427 105.439 72.7927 103.839 46.5427 100.579C20.2927 97.3185 -1.92733 94.5685 0.132672 46.5085C2.19267 -1.54147 32.8227 -2.10147 58.8827 1.13853C84.9427 4.36853 110.703 11.9185 98.2227 58.6885V58.6785Z" fill="#0DA7BC"/>
<path d="M73.0781 23.6389H28.4181C25.3481 23.6389 22.8281 26.1489 22.8281 29.2289L22.7981 62.7389C22.7981 65.8289 25.2981 68.3289 28.3881 68.3289H32.5781C33.3481 68.3289 33.9781 68.9489 33.9781 69.7289V75.5589C33.9781 78.0489 36.9881 79.2889 38.7481 77.5389L47.1281 69.1589C47.6481 68.6289 48.3581 68.3389 49.0981 68.3389H73.0781C76.1481 68.3389 78.6681 65.8289 78.6681 62.7489V29.2289C78.6681 26.1589 76.1581 23.6389 73.0781 23.6389Z" fill="white"/>
</svg>
