<svg width="52" height="52" viewBox="0 0 52 52" fill="none" xmlns="http://www.w3.org/2000/svg">
<g clip-path="url(#clip0_1041_5197)">
<rect width="52" height="52" rx="26" fill="#FEEFBD"/>
<path d="M33.5845 8.7689C33.8161 8.95517 34.0728 9.07096 34.239 9.22703C41.126 14.1104 45.2542 24.1791 44.9521 36.8607C44.6601 49.7034 39.9731 59.5959 32.7337 64.0714C32.6078 64.1721 32.3914 64.3081 32.2001 64.3785C29.5318 65.909 26.5515 66.7497 23.2842 66.6692L23.2187 66.639C15.204 66.2765 8.96644 59.8023 9.27857 52.2356C9.40946 49.5423 10.2452 46.8589 11.7303 44.4676C14.9473 39.3326 15.1386 32.8936 12.1381 27.5874C10.7436 25.1407 10.0086 22.4422 10.074 19.7237C10.1747 12.1369 16.6841 5.98993 24.6888 6.03524C24.6888 6.03524 24.7542 6.06545 24.7844 6C28.0215 6.146 30.9666 7.09749 33.5845 8.7689Z" fill="#E5A72C"/>
<path fill-rule="evenodd" clip-rule="evenodd" d="M43.3194 48.4296C41.0396 54.2762 37.4166 58.7582 32.8495 61.3781C32.7135 61.4787 32.4769 61.6147 32.2756 61.6852C29.4009 63.2156 26.194 64.0563 22.675 63.9758L22.6045 63.9456C17.4502 63.7262 12.9759 61.3304 10.2784 57.8251C9.55864 56.0945 9.19746 54.2019 9.27857 52.2356C9.40946 49.5423 10.2452 46.8589 11.7303 44.4676C14.9473 39.3326 15.1386 32.8936 12.1381 27.5874C10.7436 25.1407 10.0086 22.4422 10.074 19.7237C10.1747 12.1369 16.6841 5.98993 24.6888 6.03524C24.6888 6.03524 24.7542 6.06545 24.7844 6C28.0215 6.146 30.9666 7.09749 33.5845 8.7689C33.6934 8.85647 33.8078 8.92847 33.9158 8.99639C34.0375 9.07295 34.1509 9.14434 34.239 9.22703C41.126 14.1104 45.2542 24.1791 44.9521 36.8607C44.8566 41.0614 44.2909 44.9464 43.3194 48.4296Z" fill="url(#paint0_radial_1041_5197)"/>
<path d="M46.2168 52.4633C45.9248 52.4633 45.6328 52.3374 45.4314 52.0907C45.084 51.6578 45.1495 51.0285 45.5774 50.6761C45.6126 50.6459 49.041 47.7964 49.2676 43.2353C49.6099 36.4641 42.2044 35.5478 41.8922 35.5126C41.3385 35.4471 40.9407 34.9487 41.0012 34.3949C41.0616 33.8412 41.565 33.4485 42.1188 33.5089C42.3705 33.5391 44.6309 33.821 46.8461 35.1098C49.9271 36.897 51.4626 39.7414 51.2864 43.336C51.0145 48.8134 47.0223 52.1008 46.8511 52.2367C46.6648 52.3878 46.4433 52.4583 46.2168 52.4583V52.4633Z" fill="#5B4F48"/>
<path d="M47.4552 56.9338C47.3998 56.9338 47.3394 56.9288 47.279 56.9187C46.7806 56.8231 46.4534 56.3398 46.5541 55.8464C46.987 53.6111 45.7284 52.0001 45.673 51.9347C45.3609 51.542 45.4213 50.9631 45.814 50.6459C46.2067 50.3287 46.7806 50.3891 47.0978 50.7768C47.1733 50.8724 48.9504 53.0926 48.3513 56.1938C48.2657 56.6318 47.8831 56.9388 47.4502 56.9388L47.4552 56.9338Z" fill="#5B4F48"/>
<path d="M45.5472 56.8583C45.3962 56.8583 45.2401 56.818 45.0991 56.7425C44.6561 56.4958 44.5 55.937 44.7467 55.494C45.7586 53.6866 45.1797 51.7988 45.1746 51.7786C45.0236 51.2953 45.2854 50.7818 45.7687 50.6257C46.247 50.4697 46.7655 50.7315 46.9216 51.2097C46.9568 51.3155 47.7673 53.8628 46.3477 56.3901C46.1815 56.6922 45.8694 56.8583 45.5472 56.8583Z" fill="#5B4F48"/>
<path d="M48.8296 56.229C48.3815 56.229 47.9889 55.9018 47.9234 55.4487C47.5207 52.7603 46.4937 51.9599 46.4836 51.9498C46.0607 51.6729 45.955 51.109 46.2369 50.6862C46.5188 50.2633 47.0978 50.1525 47.5207 50.4344C47.6918 50.5502 49.2122 51.6427 49.7408 55.1768C49.8163 55.6803 49.469 56.1434 48.9706 56.2189C48.9253 56.224 48.8799 56.229 48.8346 56.229H48.8296Z" fill="#5B4F48"/>
<path d="M14.2689 36.6137C14.2689 36.6137 14.2336 36.6137 14.2135 36.6137C13.9819 36.5986 8.52467 36.2462 5.78597 31.3729C3.08252 26.555 5.07613 21.6012 5.16171 21.3898C5.37315 20.8763 5.96217 20.6296 6.47568 20.846C6.98919 21.0575 7.23587 21.6465 7.02443 22.16C6.99422 22.2406 5.33791 26.4594 7.54297 30.3862C9.72788 34.2777 14.279 34.5999 14.3293 34.5999C14.8831 34.6352 15.306 35.1084 15.2758 35.6622C15.2456 36.1958 14.8025 36.6087 14.2739 36.6087L14.2689 36.6137Z" fill="#5B4F48"/>
<path d="M6.01254 22.7239C5.81116 22.7239 5.60475 22.6584 5.43862 22.5175C5.32283 22.4218 2.60427 20.1966 2.49351 17.327C2.47338 16.8236 2.87109 16.3957 3.37453 16.3755C3.87293 16.3554 4.30589 16.7481 4.32603 17.2565C4.40657 19.2703 6.56632 21.0726 6.59149 21.0927C6.98417 21.4099 7.04458 21.9888 6.72742 22.3815C6.54618 22.6081 6.27936 22.7239 6.01254 22.7239Z" fill="#5B4F48"/>
<path d="M6.30956 22.7088C6.0377 22.7088 5.77088 22.5879 5.58964 22.3564C5.45875 22.1852 4.31595 20.5994 4.75897 17.5133C4.82946 17.0099 5.29765 16.6625 5.79605 16.738C6.29949 16.8085 6.64686 17.2767 6.57135 17.7751C6.23908 20.0909 7.01437 21.2035 7.04458 21.2488C7.33657 21.6566 7.25099 22.2255 6.85327 22.5275C6.68714 22.6534 6.49583 22.7088 6.30453 22.7088H6.30956Z" fill="#5B4F48"/>
<path d="M5.14157 22.5527C5.11137 22.5527 5.08116 22.5527 5.04592 22.5527C4.79924 22.5275 2.57908 22.2154 0.817052 19.084C0.570368 18.641 0.726433 18.0822 1.16442 17.8355C1.60745 17.5888 2.16626 17.7449 2.41295 18.1829C3.70678 20.4836 5.18688 20.7202 5.2473 20.7302C5.74066 20.8007 6.0981 21.2538 6.03769 21.7522C5.98231 22.2154 5.59467 22.5577 5.13654 22.5577L5.14157 22.5527Z" fill="#5B4F48"/>
<path opacity="0.45" d="M16.229 29.9485C15.6249 29.9485 15.0963 29.5004 15.0157 28.8812C14.9301 28.2116 15.3983 27.5975 16.0679 27.5119L16.3297 27.4766C17.0043 27.391 17.6134 27.8592 17.699 28.5288C17.7846 29.1984 17.3164 29.8126 16.6468 29.8982L16.3851 29.9334C16.3297 29.9384 16.2793 29.9435 16.224 29.9435L16.229 29.9485Z" fill="#F07FB1"/>
<path opacity="0.45" d="M33.5422 27.6075C32.9381 27.6075 32.4145 27.1595 32.3289 26.5503C32.2383 25.8807 32.7065 25.2665 33.3761 25.1759L33.6731 25.1356C34.3427 25.045 34.9568 25.5132 35.0475 26.1828C35.1381 26.8524 34.6699 27.4666 34.0003 27.5572L33.7033 27.5974C33.6479 27.6025 33.5925 27.6075 33.5372 27.6075H33.5422Z" fill="#F07FB1"/>
<path opacity="0.5" d="M15.8464 20.4889C15.7457 20.4889 15.645 20.4638 15.5494 20.4084C15.2523 20.2422 15.1516 19.8697 15.3127 19.5777C15.348 19.5173 16.1736 18.0775 18.0967 17.8207C18.434 17.7754 18.7411 18.012 18.7865 18.3443C18.8318 18.6766 18.5951 18.9887 18.2629 19.034C16.959 19.2102 16.3851 20.1667 16.38 20.1768C16.2693 20.3782 16.0578 20.4889 15.8464 20.4889Z" fill="#5B4F48"/>
<path opacity="0.5" d="M31.7651 18.3342C31.609 18.3342 31.4529 18.2738 31.3321 18.158C31.2918 18.1177 30.5065 17.3777 29.2126 17.5539C28.8804 17.5992 28.5682 17.3626 28.5229 17.0303C28.4776 16.698 28.7142 16.3859 29.0465 16.3406C30.9747 16.0788 32.1477 17.2468 32.198 17.2971C32.4346 17.5388 32.4346 17.9264 32.193 18.163C32.0722 18.2788 31.9161 18.3392 31.7651 18.3392V18.3342Z" fill="#5B4F48"/>
<path d="M32.6763 22.5228C32.8827 24.0482 32.4548 24.9443 31.1609 25.1205C30.3303 25.2313 29.2177 24.5416 29.0113 23.0162C28.8048 21.4908 29.1321 20.1919 30.3252 20.0308C31.6694 19.8496 32.4699 20.9974 32.6763 22.5228Z" fill="#4C3F38"/>
<path d="M30.0282 22.4423C30.3368 22.4423 30.587 22.1921 30.587 21.8834C30.587 21.5748 30.3368 21.3246 30.0282 21.3246C29.7196 21.3246 29.4694 21.5748 29.4694 21.8834C29.4694 22.1921 29.7196 22.4423 30.0282 22.4423Z" fill="white"/>
<path d="M19.9192 24.2496C20.1256 25.775 19.6977 26.6711 18.4038 26.8473C17.5732 26.9581 16.4606 26.2684 16.2542 24.743C16.0478 23.2175 16.375 21.9187 17.5681 21.7576C18.9123 21.5763 19.7128 22.7242 19.9192 24.2496Z" fill="#4C3F38"/>
<path d="M17.2661 24.169C17.5747 24.169 17.8249 23.9189 17.8249 23.6102C17.8249 23.3016 17.5747 23.0514 17.2661 23.0514C16.9574 23.0514 16.7073 23.3016 16.7073 23.6102C16.7073 23.9189 16.9574 24.169 17.2661 24.169Z" fill="white"/>
<path d="M25.3613 27.9901C26.5243 27.3407 27.7325 27.0386 28.7495 27.0789C28.7797 26.9229 28.7998 26.7618 28.8099 26.5956C28.83 26.1526 28.4373 25.8052 27.9993 25.8807C27.9993 25.8807 26.8414 26.3238 24.9032 26.6711C22.965 27.0185 21.8977 26.943 21.8977 26.943C21.4597 27.0185 21.208 27.4817 21.3741 27.8894C21.7416 28.7805 22.4263 29.3947 23.267 29.727C23.7805 29.0826 24.4954 28.4734 25.3613 27.9901Z" fill="#4C3F38"/>
<path d="M25.3613 27.9901C24.4954 28.4734 23.7856 29.0826 23.267 29.727C23.9618 30.0039 24.7623 30.0844 25.5879 29.9435C27.2341 29.6565 28.4675 28.5942 28.7495 27.0789C27.7325 27.0437 26.5192 27.3407 25.3613 27.9901Z" fill="#FF8373"/>
<path opacity="0.45" d="M22.3226 8.33595C18.9949 8.36616 15.788 10.3195 14.2727 13.2898C13.7994 14.2211 15.204 15.0518 15.6823 14.1154C16.9409 11.6385 19.5437 9.99226 22.3226 9.96709C23.3698 9.95702 23.3748 8.32588 22.3226 8.33595Z" fill="white"/>
<path fill-rule="evenodd" clip-rule="evenodd" d="M13.3685 41.0441C14.5243 37.6942 14.5764 34.0606 13.4889 30.671C15.4808 30.8874 17.1977 32.8251 17.4947 35.361C17.8294 38.2192 16.2338 40.7549 13.9306 41.0246C13.7418 41.0467 13.5542 41.0529 13.3685 41.0441Z" fill="#FFE9BE"/>
</g>
<defs>
<radialGradient id="paint0_radial_1041_5197" cx="0" cy="0" r="1" gradientTransform="matrix(-2.85829 42.3391 -25.048 -1.63351 21.9967 21.6419)" gradientUnits="userSpaceOnUse">
<stop stop-color="#FFD985"/>
<stop offset="0.616022" stop-color="#FFD985"/>
<stop offset="1" stop-color="#E5A72C"/>
</radialGradient>
<clipPath id="clip0_1041_5197">
<rect width="52" height="52" rx="26" fill="white"/>
</clipPath>
</defs>
</svg>
