<svg width="52" height="52" viewBox="0 0 52 52" fill="none" xmlns="http://www.w3.org/2000/svg">
<g clip-path="url(#clip0_1041_5201)">
<rect width="52" height="52" rx="26" fill="#FEEFBD"/>
<path d="M15.0315 50.0874C14.8797 50.0874 14.7279 50.047 14.5863 49.966C13.9386 49.5916 8.23657 46.1967 8.07467 42.827C7.84193 37.9547 14.7077 34.7723 15.1985 34.6863C15.6892 34.6053 16.1395 34.9342 16.2205 35.4149C16.2913 35.85 16.0383 36.2649 15.6336 36.4015C14.6116 36.8163 9.69877 39.4979 9.85562 42.736C9.94163 44.5523 13.3568 47.1883 15.4868 48.4279C15.9118 48.6758 16.0535 49.2172 15.8107 49.6422C15.6437 49.9255 15.3452 50.0874 15.0416 50.0874H15.0315Z" fill="#5B4F48"/>
<path d="M13.5086 54.2464C13.119 54.2464 12.7598 53.9782 12.6687 53.5785C12.0262 50.8211 13.8678 48.5443 13.9488 48.4482C14.2524 48.0789 14.7988 48.0283 15.1631 48.3318C15.5324 48.6354 15.583 49.1818 15.2794 49.5461C15.2693 49.5613 13.9032 51.2714 14.3485 53.1839C14.4547 53.6494 14.1663 54.1148 13.7059 54.2211C13.6402 54.2363 13.5744 54.2413 13.5086 54.2413V54.2464Z" fill="#5B4F48"/>
<path d="M15.4565 54.0541C15.1681 54.0541 14.8898 53.9124 14.7229 53.6493C13.1595 51.1651 14.394 48.8985 14.4446 48.8023C14.6773 48.3875 15.2035 48.2357 15.6184 48.4735C16.0333 48.7062 16.1851 49.2324 15.9523 49.6473C15.922 49.7029 15.1782 51.1348 16.1851 52.7285C16.438 53.1333 16.3166 53.6645 15.9169 53.9175C15.7752 54.0086 15.6133 54.049 15.4565 54.049V54.0541Z" fill="#5B4F48"/>
<path d="M11.8693 53.4723C11.8035 53.4723 11.7378 53.4621 11.6669 53.447C11.2015 53.3356 10.9181 52.8702 11.0294 52.4047C11.6416 49.8395 12.8711 48.5494 12.9267 48.4988C13.2607 48.1547 13.8071 48.1497 14.1461 48.4836C14.4901 48.8175 14.4952 49.3639 14.1613 49.7029C14.1562 49.708 13.2 50.7351 12.7092 52.8044C12.6131 53.199 12.2589 53.4672 11.8693 53.4672V53.4723Z" fill="#5B4F48"/>
<path d="M26.3337 6.81636C26.6069 6.93273 26.8903 6.98333 27.0926 7.08958C35.0614 10.014 41.7045 18.6961 44.7503 31.0767C47.8417 43.6142 45.8988 54.4365 40.0551 60.6799C39.959 60.8114 39.7819 60.9986 39.62 61.115C37.4343 63.3007 34.7679 64.8995 31.5754 65.6837L31.5045 65.6736C23.637 67.4293 15.8808 62.7897 14.196 55.3674C13.6141 52.7213 13.7204 49.8981 14.5349 47.1912C16.3058 41.3627 14.798 35.0687 10.4924 30.7074C8.49389 28.6987 7.07217 26.2803 6.42456 23.619C4.51712 16.2372 9.21234 8.56695 16.9888 6.50773C16.9888 6.50773 17.0596 6.51785 17.0698 6.44702C20.2471 5.73363 23.3537 5.88541 26.3337 6.82142V6.81636Z" fill="#E5A72C"/>
<path fill-rule="evenodd" clip-rule="evenodd" d="M46.2078 42.7001C45.538 48.9825 43.2004 54.2914 39.453 58.0388C39.3518 58.1704 39.1545 58.3626 38.9774 58.4891C36.5944 60.7305 33.7004 62.385 30.2649 63.235L30.1891 63.2248C25.1449 64.3638 20.1868 63.2237 16.6509 60.5473C15.4895 59.0532 14.6358 57.3051 14.196 55.3674C13.6141 52.7213 13.7204 49.8981 14.5349 47.1912C16.3058 41.3627 14.798 35.0687 10.4924 30.7074C8.49389 28.6987 7.07217 26.2803 6.42456 23.619C4.51712 16.2372 9.21234 8.56695 16.9888 6.50773C16.9888 6.50773 17.0596 6.51785 17.0698 6.44702C20.2471 5.73363 23.3537 5.88541 26.3337 6.82142V6.81636C26.4595 6.86995 26.5875 6.90959 26.7087 6.94714C26.8507 6.99113 26.9835 7.03225 27.0926 7.08958C35.0614 10.014 41.7045 18.6961 44.7503 31.0767C45.7588 35.1669 46.2316 39.0745 46.2078 42.7001Z" fill="url(#paint0_radial_1041_5201)"/>
<path opacity="0.45" d="M15.2939 9.35626C12.0811 10.2569 9.47543 12.9991 8.79745 16.2777C8.70638 16.7128 8.92394 17.1631 9.36918 17.2845C9.77394 17.3958 10.2849 17.1479 10.376 16.7128C10.5278 15.9842 10.7403 15.3771 11.0591 14.7699C11.4082 14.1122 11.7674 13.6012 12.2531 13.0851C13.2144 12.053 14.3933 11.3143 15.729 10.9399C16.7409 10.6566 16.3108 9.07293 15.2939 9.36132V9.35626Z" fill="white"/>
<path fill-rule="evenodd" clip-rule="evenodd" d="M15.2242 43.4378C15.4643 39.8848 14.5595 36.3476 12.6138 33.3451C14.5995 33.0396 16.7669 34.467 17.7194 36.8437C18.7953 39.5282 17.9139 42.4073 15.7507 43.2742C15.5778 43.3435 15.402 43.3979 15.2242 43.4378Z" fill="#FFE9BE"/>
<path d="M44.6095 41.8021C44.3313 41.8021 44.053 41.6706 43.881 41.4227C43.5976 41.023 43.6988 40.4664 44.0985 40.1831C46.3551 38.5995 49.8816 35.3462 49.75 33.3629C49.6336 31.6882 46.9976 30.5447 45.4342 30.0084C43.1828 29.2495 40.8756 28.9257 40.5316 28.8953C40.1167 28.8852 39.7524 28.5766 39.6816 28.1516C39.6057 27.6659 39.9295 27.2105 40.4152 27.1245C40.82 27.0537 46.7447 27.8531 49.7196 30.2058C50.8378 31.0912 51.4399 32.1132 51.5208 33.2415C51.7687 36.8641 45.7985 41.1596 45.1206 41.6402C44.9637 41.7515 44.7866 41.8021 44.6095 41.8021Z" fill="#5B4F48"/>
<path d="M47.2101 45.2729C46.7548 45.2729 46.3702 44.9137 46.35 44.4533C46.2488 42.4953 44.4982 41.3215 44.478 41.3063C44.0834 41.0432 43.967 40.5119 44.2301 40.1122C44.4881 39.7125 45.0194 39.6012 45.4191 39.8593C45.5203 39.925 47.9286 41.5137 48.0753 44.3673C48.1006 44.8429 47.7313 45.2476 47.2557 45.2729C47.2405 45.2729 47.2253 45.2729 47.2101 45.2729Z" fill="#5B4F48"/>
<path d="M45.3027 45.7233C45.2268 45.7233 45.1459 45.7132 45.07 45.6929C44.6095 45.5614 44.3414 45.0858 44.4729 44.6254C44.9941 42.7736 43.9012 41.6605 43.8506 41.615C43.5167 41.281 43.5066 40.7346 43.8354 40.3956C44.1643 40.0566 44.7057 40.0414 45.0447 40.3703C45.1206 40.4462 46.9369 42.217 46.1274 45.0959C46.0211 45.4754 45.672 45.7233 45.2976 45.7233H45.3027Z" fill="#5B4F48"/>
<path d="M48.5661 43.9979C48.2676 43.9979 47.9741 43.8411 47.8173 43.5628C46.7851 41.7667 45.6063 41.0988 45.5911 41.0938C45.1762 40.8661 45.0194 40.3399 45.2471 39.925C45.4697 39.5102 45.9857 39.3483 46.4057 39.5709C46.4715 39.6063 48.0146 40.4411 49.3149 42.7027C49.5527 43.1176 49.411 43.6438 48.9961 43.8816C48.8595 43.9575 48.7128 43.9979 48.5661 43.9979Z" fill="#5B4F48"/>
<path opacity="0.45" d="M14.6469 32.4954C14.1814 32.4954 13.7413 32.2323 13.5288 31.782C13.2404 31.1647 13.5085 30.4362 14.1258 30.1478L14.3636 30.0365C14.9808 29.7481 15.7094 30.0162 15.9978 30.6335C16.2862 31.2508 16.018 31.9793 15.4008 32.2677L15.163 32.379C14.996 32.4549 14.8189 32.4954 14.6469 32.4954Z" fill="#F07FB1"/>
<path opacity="0.45" d="M30.5439 25.0428C30.0835 25.0428 29.6382 24.7797 29.4308 24.3344C29.1424 23.7222 29.4055 22.9886 30.0227 22.7002L30.296 22.5737C30.9132 22.2853 31.6418 22.5484 31.9302 23.1657C32.2186 23.7779 31.9555 24.5115 31.3382 24.7999L31.065 24.9264C30.898 25.0073 30.721 25.0428 30.5439 25.0428Z" fill="#F07FB1"/>
<path opacity="0.5" d="M10.8067 22.4827C10.8067 22.4827 10.7916 22.4827 10.7814 22.4827C10.4424 22.4675 10.1794 22.1841 10.1945 21.8452C10.1945 21.7642 10.3008 19.9074 12.4157 19.194C12.7395 19.0877 13.0835 19.2597 13.1948 19.5785C13.3011 19.9023 13.129 20.2464 12.8103 20.3577C11.4898 20.8029 11.4291 21.8806 11.4291 21.8958C11.4139 22.2246 11.1407 22.4827 10.8169 22.4827H10.8067Z" fill="#5B4F48"/>
<path opacity="0.5" d="M23.0457 14.9996C22.8433 14.9996 22.646 14.8984 22.5296 14.7163C22.3475 14.4329 22.4284 14.0484 22.7168 13.8663C24.5585 12.6823 26.1118 13.7954 26.1725 13.841C26.4457 14.0434 26.5064 14.4279 26.304 14.7011C26.1016 14.9743 25.7222 15.03 25.449 14.8326C25.4034 14.8023 24.4927 14.18 23.3796 14.8984C23.2784 14.9642 23.1621 14.9945 23.0457 14.9945V14.9996Z" fill="#5B4F48"/>
<path d="M25.0543 22.2904C24.8064 22.2904 24.5686 22.1437 24.4674 21.9008C23.7338 20.1148 24.0323 18.7032 25.2769 18.1213C26.643 17.4788 28.0546 18.1213 28.9653 19.791C29.1323 20.0996 29.0159 20.4841 28.7123 20.6511C28.4088 20.8181 28.0192 20.7017 27.8522 20.3981C27.579 19.8972 26.8403 18.7892 25.8132 19.2698C25.0391 19.6341 25.3731 20.7725 25.6412 21.4201C25.7728 21.7439 25.621 22.1133 25.2972 22.2448C25.2162 22.2752 25.1353 22.2904 25.0543 22.2904Z" fill="#4C3F38"/>
<path d="M13.3466 27.8002C13.0987 27.8002 12.8609 27.6534 12.7597 27.4106C12.016 25.6145 12.3145 24.1978 13.5591 23.6109C14.9302 22.9683 16.3469 23.6109 17.2526 25.2957C17.4195 25.6043 17.3032 25.9889 16.9945 26.1508C16.6859 26.3177 16.3014 26.2014 16.1395 25.8927C15.8663 25.3918 15.1276 24.2737 14.0954 24.7543C13.3163 25.1186 13.6553 26.2671 13.9285 26.9198C14.06 27.2436 13.9082 27.613 13.5895 27.7445C13.5085 27.7799 13.4276 27.7951 13.3466 27.7951V27.8002Z" fill="#4C3F38"/>
<path d="M23.6478 28.463C24.4168 27.7395 25.2617 27.2234 26.0814 26.93C26.0561 26.3835 25.9802 25.8573 25.8891 25.402C25.8588 25.2603 25.7879 25.1389 25.6918 25.0478C25.0897 25.8118 24.1132 26.5859 22.904 27.188C21.3862 27.9419 19.8734 28.2404 18.826 28.0785C18.826 28.2201 18.8665 28.3618 18.9576 28.4883C19.6609 29.4395 20.6576 30.5222 21.9427 30.8865C22.2766 30.0618 22.8534 29.2118 23.6478 28.463Z" fill="#4C3F38"/>
<path d="M21.9427 30.8865C22.5853 31.0737 23.2987 31.0787 24.0879 30.7954C25.793 30.1782 26.1522 28.4782 26.0814 26.9299C25.2668 27.2234 24.4168 27.7395 23.6478 28.463C22.8534 29.2118 22.2766 30.0618 21.9427 30.8865Z" fill="#FF8373"/>
<path d="M22.904 27.188C24.1132 26.5859 25.0948 25.8118 25.6918 25.0478C25.4945 24.8555 25.196 24.7796 24.9228 24.9011C24.9228 24.9011 23.496 26.0192 21.9832 26.6112C20.4299 27.2234 19.2359 27.4258 19.2359 27.4258C18.9728 27.5421 18.826 27.8052 18.826 28.0683C19.8734 28.2353 21.3862 27.9317 22.904 27.1778V27.188Z" fill="white"/>
</g>
<defs>
<radialGradient id="paint0_radial_1041_5201" cx="0" cy="0" r="1" gradientTransform="matrix(-3.21925 42.1077 -28.2112 -1.62458 20.3368 21.5564)" gradientUnits="userSpaceOnUse">
<stop stop-color="#FFD985"/>
<stop offset="0.616022" stop-color="#FFD985"/>
<stop offset="1" stop-color="#E5A72C"/>
</radialGradient>
<clipPath id="clip0_1041_5201">
<rect width="52" height="52" rx="26" fill="white"/>
</clipPath>
</defs>
</svg>
