<svg width="52" height="52" viewBox="0 0 52 52" fill="none" xmlns="http://www.w3.org/2000/svg">
<g clip-path="url(#clip0_1041_5198)">
<rect width="52" height="52" rx="26" fill="#FEEFBD"/>
<path d="M12.8571 49.2508C12.6547 49.2508 12.4522 49.1799 12.2852 49.0433C11.7842 48.6232 7.41696 44.8379 7.41696 41.5334C7.41696 36.6499 13.3024 33.9223 13.7174 33.8716C14.2083 33.8109 14.6485 34.1601 14.7042 34.6459C14.7548 35.071 14.4967 35.4607 14.1071 35.5922C13.8338 35.7188 9.19323 37.9505 9.19323 41.5283C9.19323 43.6335 12.2498 46.68 13.4289 47.6769C13.8034 47.9957 13.849 48.5524 13.5352 48.9269C13.3581 49.1344 13.1101 49.2406 12.8571 49.2406V49.2508Z" fill="#5B4F48"/>
<path d="M11.7387 53.031C11.3996 53.031 11.0808 52.8286 10.9391 52.4996C9.85109 49.8833 11.3035 47.3328 11.3642 47.2265C11.6021 46.8166 12.1334 46.6749 12.5433 46.9127C12.9583 47.1506 13.0949 47.6819 12.8571 48.0918C12.847 48.107 11.7792 50.0199 12.5332 51.8367C12.7154 52.2769 12.5079 52.783 12.0676 52.9652C11.9614 53.0107 11.845 53.031 11.7387 53.031Z" fill="#5B4F48"/>
<path d="M13.6263 52.525C13.3885 52.525 13.1506 52.4288 12.9786 52.2365C11.0252 50.0402 11.8753 47.601 11.9158 47.4998C12.0778 47.0494 12.5737 46.8166 13.0241 46.9836C13.4745 47.1456 13.7073 47.6415 13.5453 48.0919C13.5251 48.1476 13.0241 49.686 14.2741 51.0928C14.5929 51.4471 14.5575 51.9936 14.2032 52.3124C14.0362 52.4592 13.8338 52.53 13.6314 52.53L13.6263 52.525Z" fill="#5B4F48"/>
<path d="M9.9928 52.5351C9.51711 52.5351 9.12744 52.1505 9.12744 51.6697C9.12744 48.9573 10.3572 47.4492 10.4078 47.3834C10.7114 47.0191 11.2579 46.9684 11.6223 47.2721C11.9867 47.5757 12.0373 48.1223 11.7336 48.4866C11.7033 48.5271 10.8531 49.6151 10.8531 51.6647C10.8531 52.1404 10.4685 52.53 9.98774 52.53L9.9928 52.5351Z" fill="#5B4F48"/>
<path d="M29.6162 7.56875C29.8743 7.72057 30.1475 7.79648 30.3348 7.92805C37.8953 11.7842 43.4619 21.1969 45.0105 33.8585C46.5843 46.6769 43.3658 57.1979 36.8174 62.6988C36.7061 62.8152 36.5087 62.9821 36.3316 63.0834C33.9025 64.9963 31.0584 66.2614 27.7994 66.6612L27.7286 66.6409C19.7025 67.4456 12.5569 61.9144 11.7726 54.3437C11.5094 51.6464 11.9497 48.853 13.0832 46.262C15.5326 40.6852 14.7937 34.2532 11.0388 29.4102C9.29287 27.1785 8.17448 24.6027 7.84048 21.8851C6.8233 14.3246 12.4001 7.26512 20.3705 6.14673C20.3705 6.14673 20.4413 6.16697 20.4616 6.09612C23.7004 5.76718 26.7721 6.28842 29.6162 7.56875Z" fill="#E5A72C"/>
<path fill-rule="evenodd" clip-rule="evenodd" d="M45.0698 45.5884C43.6536 51.7397 40.7002 56.7284 36.534 60.0015C36.4176 60.1229 36.2 60.2899 36.0077 60.3911C33.3711 62.3344 30.2993 63.6299 26.7873 64.0651L26.7114 64.0449C21.5641 64.5756 16.7743 62.8495 13.5819 59.7661C12.6121 58.1474 11.9768 56.3147 11.7726 54.3437C11.5094 51.6464 11.9497 48.853 13.0832 46.262C15.5326 40.6852 14.7937 34.2532 11.0388 29.4102C9.29287 27.1785 8.17448 24.6027 7.84048 21.8851C6.8233 14.3246 12.4001 7.26512 20.3705 6.14673C20.3705 6.14673 20.4413 6.16697 20.4616 6.09612C23.7004 5.76718 26.7721 6.28842 29.6162 7.56875C29.7373 7.64 29.8618 7.69453 29.9791 7.74594C30.1118 7.80408 30.2354 7.85823 30.3348 7.92805C37.8953 11.7842 43.4619 21.1969 45.0105 33.8585C45.5245 38.0452 45.5273 41.9868 45.0698 45.5884Z" fill="url(#paint0_radial_1041_5198)"/>
<path opacity="0.45" d="M18.2567 8.47584C14.9421 8.99201 12.1031 11.4818 11.0403 14.6447C10.8987 15.0647 11.2023 15.5404 11.6122 15.6517C12.0575 15.7732 12.4776 15.4999 12.6193 15.0799C13.0545 13.7844 13.8793 12.6356 14.9572 11.7247C16.0351 10.8138 17.2952 10.2723 18.6869 10.0547C19.1272 9.98895 19.365 9.43735 19.2587 9.04768C19.1322 8.58211 18.692 8.40499 18.2517 8.47584H18.2567Z" fill="white"/>
<path d="M33.6542 37.1447C29.6968 37.1447 25.7091 32.7521 25.532 32.5548C25.203 32.1904 25.2334 31.6287 25.5978 31.2997C25.9621 30.9708 26.5238 31.0012 26.8528 31.3655C27.956 32.5902 31.3972 35.6923 34.0844 35.3381C36.4831 35.0193 37.9759 32.4586 38.5124 27.727C38.568 27.2412 39.0134 26.8869 39.4941 26.9426C39.9799 26.9982 40.3342 27.4385 40.2785 27.9243C39.6358 33.5719 37.6318 36.6589 34.3171 37.0992C34.0945 37.1295 33.8718 37.1447 33.6491 37.1447H33.6542Z" fill="#5B4F48"/>
<path d="M25.0563 33.3442C24.1049 33.3442 22.6626 33.1266 21.1242 32.0993C20.6991 31.8159 20.5827 31.2441 20.8661 30.819C21.1495 30.3939 21.7214 30.2775 22.1464 30.5609C24.0543 31.826 25.6636 31.4515 25.7344 31.4364C26.2253 31.3149 26.7263 31.6135 26.8528 32.0993C26.9793 32.5902 26.6908 33.0861 26.205 33.2177C26.1645 33.2278 25.7344 33.3391 25.0613 33.3391L25.0563 33.3442Z" fill="#5B4F48"/>
<path d="M25.8862 32.5952C25.5725 32.5952 23.9784 32.5193 22.2881 31.1074C21.8985 30.7785 21.8428 30.2016 22.1717 29.8069C22.5007 29.4172 23.0776 29.3666 23.4723 29.6905C24.7172 30.7279 25.8356 30.7481 25.8761 30.7481C26.3923 30.7329 26.8072 31.1378 26.8224 31.6489C26.8325 32.16 26.4328 32.5801 25.9216 32.5952C25.9115 32.5952 25.9014 32.5952 25.8812 32.5952H25.8862Z" fill="#5B4F48"/>
<path d="M23.3762 33.992C22.7486 33.992 22.0503 33.8908 21.3266 33.6023C20.856 33.4151 20.6232 32.8787 20.8104 32.403C20.9977 31.9323 21.5341 31.6995 22.0098 31.8868C23.6393 32.5396 25.0917 31.7754 25.1524 31.7451C25.5978 31.5022 26.1595 31.6692 26.4024 32.1145C26.6453 32.5598 26.4834 33.1165 26.0431 33.3594C25.9773 33.3948 24.8792 33.9869 23.3762 33.9869V33.992Z" fill="#5B4F48"/>
<path fill-rule="evenodd" clip-rule="evenodd" d="M14.2232 42.2805C14.8824 38.7802 14.4058 35.1594 12.8304 31.9471C14.8372 31.8832 16.8168 33.5586 17.4787 36.0306C18.2269 38.8249 17.0081 41.5788 14.7565 42.1817C14.5796 42.2291 14.4015 42.2618 14.2232 42.2805Z" fill="#FFE9BE"/>
<path opacity="0.45" d="M14.4818 30.0422C13.9454 30.0422 13.4545 29.6879 13.3027 29.1515C13.1155 28.4987 13.495 27.8155 14.1478 27.6334L14.4008 27.5625C15.0537 27.3753 15.7368 27.7548 15.919 28.4076C16.1063 29.0604 15.7267 29.7436 15.0739 29.9258L14.8209 29.9966C14.7095 30.027 14.5931 30.0422 14.4818 30.0422Z" fill="#F07FB1"/>
<path opacity="0.45" d="M31.2728 25.1993C30.7415 25.1993 30.2506 24.8501 30.0937 24.3137C29.9065 23.6608 30.281 22.9777 30.9338 22.7904L31.2222 22.7044C31.875 22.5171 32.5582 22.8916 32.7455 23.5444C32.9327 24.1973 32.5582 24.8804 31.9054 25.0677L31.617 25.1537C31.5006 25.1891 31.3892 25.2043 31.2728 25.2043V25.1993Z" fill="#F07FB1"/>
<path opacity="0.5" d="M12.6803 20.9787C12.3513 20.9787 12.078 20.7156 12.0679 20.3816C12.0578 20.0425 12.321 19.7591 12.66 19.749C12.6853 19.749 13.2673 19.7136 13.5912 19.334C13.7835 19.1114 13.8644 18.7824 13.8189 18.3573C13.7835 18.0183 14.0314 17.7197 14.3705 17.6843C14.7197 17.6488 15.0081 17.8968 15.0435 18.2359C15.1195 19.0152 14.9423 19.6579 14.5071 20.1488C13.829 20.918 12.8118 20.9686 12.6954 20.9736C12.6904 20.9736 12.6853 20.9736 12.6752 20.9736L12.6803 20.9787Z" fill="#5B4F48"/>
<path opacity="0.5" d="M25.9744 14.4455C25.3216 14.4455 24.5979 14.238 23.9552 13.6105C23.7123 13.3726 23.7073 12.983 23.9451 12.74C24.183 12.4971 24.5726 12.4921 24.8155 12.7299C25.7467 13.6408 26.8752 13.0133 27.0017 12.9374C27.2952 12.7653 27.6697 12.8564 27.8468 13.1449C28.0239 13.4333 27.9329 13.8078 27.6444 13.9849C27.2851 14.2076 26.6677 14.4404 25.9744 14.4404V14.4455Z" fill="#5B4F48"/>
<path d="M29.8407 20.255C30.2708 21.7378 29.9824 22.6993 28.7172 23.0637C27.9076 23.2965 26.6981 22.7752 26.2679 21.2925C25.8378 19.8097 25.9693 18.4636 27.1333 18.1296C28.444 17.7501 29.4105 18.7723 29.8407 20.255Z" fill="#4C3F38"/>
<path d="M27.4622 22.001C27.7724 22.001 28.0239 21.7495 28.0239 21.4392C28.0239 21.129 27.7724 20.8775 27.4622 20.8775C27.152 20.8775 26.9005 21.129 26.9005 21.4392C26.9005 21.7495 27.152 22.001 27.4622 22.001Z" fill="white"/>
<path d="M17.4119 23.8632C17.8421 25.346 17.5536 26.3075 16.2885 26.6719C15.4788 26.9047 14.2693 26.3834 13.8391 24.9007C13.409 23.4179 13.5406 22.0718 14.7045 21.7378C16.0152 21.3583 16.9818 22.3805 17.4119 23.8632Z" fill="#4C3F38"/>
<path d="M15.0334 25.6142C15.3437 25.6142 15.5951 25.3627 15.5951 25.0525C15.5951 24.7423 15.3437 24.4908 15.0334 24.4908C14.7232 24.4908 14.4717 24.7423 14.4717 25.0525C14.4717 25.3627 14.7232 25.6142 15.0334 25.6142Z" fill="white"/>
<path d="M22.6395 27.7649C21.7488 27.7649 21.01 27.4208 20.4533 27.097C20.1497 26.9198 20.0485 26.5352 20.2256 26.2316C20.4027 25.928 20.7873 25.8267 21.0909 26.0039C22.1992 26.6516 23.0646 26.6617 24.0919 26.0494C24.3904 25.8672 24.7801 25.9684 24.9572 26.267C25.1343 26.5656 25.0382 26.9553 24.7396 27.1324C23.9704 27.5929 23.267 27.7649 22.6395 27.7649Z" fill="#5B4F48"/>
</g>
<defs>
<radialGradient id="paint0_radial_1041_5198" cx="0" cy="0" r="1" gradientTransform="matrix(-3.01712 42.4552 -26.4398 -1.63798 21.1575 21.6848)" gradientUnits="userSpaceOnUse">
<stop stop-color="#FFD985"/>
<stop offset="0.616022" stop-color="#FFD985"/>
<stop offset="1" stop-color="#E5A72C"/>
</radialGradient>
<clipPath id="clip0_1041_5198">
<rect width="52" height="52" rx="26" fill="white"/>
</clipPath>
</defs>
</svg>
