<svg width="52" height="52" viewBox="0 0 52 52" fill="none" xmlns="http://www.w3.org/2000/svg">
<g clip-path="url(#clip0_1041_5200)">
<rect width="52" height="52" rx="26" fill="#FEEFBD"/>
<path fill-rule="evenodd" clip-rule="evenodd" d="M8.0793 22.5727C8.07941 22.5723 8.07957 22.5719 8.07968 22.5715L8.07807 22.5765C8.07629 22.5821 8.07311 22.5921 8.06874 22.6063C8.05998 22.6349 8.04642 22.6805 8.02949 22.742C7.99561 22.8649 7.94839 23.0504 7.89918 23.2885C7.80058 23.7655 7.69524 24.4476 7.67172 25.2545C7.62457 26.8725 7.9067 28.9482 9.18407 30.8941C10.4463 32.8169 12.2336 33.7733 13.741 34.2507C14.4939 34.4891 15.1664 34.6043 15.6479 34.6595C15.888 34.6871 16.0789 34.6996 16.2062 34.7052C16.2698 34.708 16.3174 34.7091 16.3472 34.7095C16.3621 34.7097 16.3725 34.7097 16.3783 34.7097L16.3824 34.7097L16.3818 34.7097C16.3823 34.7097 16.3827 34.7097 16.3832 34.7097C16.8713 34.7041 17.2721 35.0946 17.2788 35.583C17.2856 36.072 16.8946 36.4739 16.4056 36.4807L16.3934 35.5952C16.4056 36.4807 16.4052 36.4807 16.4048 36.4807L16.4017 36.4807L16.396 36.4808L16.3788 36.4808C16.365 36.4808 16.3462 36.4807 16.3228 36.4804C16.276 36.4798 16.2105 36.4782 16.1282 36.4746C15.9636 36.4673 15.7312 36.4518 15.4459 36.4191C14.8764 36.3537 14.0891 36.2187 13.2063 35.9391C11.4423 35.3804 9.25478 34.2292 7.70349 31.866C6.16737 29.5259 5.84735 27.0575 5.9014 25.2029C5.92848 24.2736 6.04958 23.4873 6.16477 22.93C6.22247 22.6508 6.27898 22.4277 6.32211 22.2713C6.34368 22.193 6.36195 22.1313 6.37539 22.0874C6.38211 22.0655 6.38763 22.048 6.39176 22.0351L6.39689 22.0193L6.39863 22.014L6.39929 22.0121L6.39956 22.0113C6.39968 22.0109 6.3998 22.0105 7.23203 22.2894L6.3998 22.0105C6.55519 21.5468 7.05708 21.2969 7.52081 21.4523C7.98394 21.6074 8.23384 22.1083 8.07968 22.5715C8.07957 22.5719 8.07941 22.5723 8.0793 22.5727Z" fill="#5B4F48"/>
<path fill-rule="evenodd" clip-rule="evenodd" d="M1.77131 19.9326C2.08222 19.6514 2.56221 19.6755 2.84339 19.9864C3.52362 20.7386 4.56782 21.1429 5.52699 21.3486C5.99526 21.4491 6.41725 21.4967 6.72143 21.5189C6.87297 21.53 6.9938 21.5348 7.07475 21.5367C7.11518 21.5377 7.14554 21.538 7.16469 21.5381L7.18479 21.538L7.18712 21.538C7.18699 21.538 7.18725 21.538 7.18712 21.538M7.18712 21.538C7.60609 21.5317 7.95136 21.8661 7.9579 22.2851C7.96444 22.7043 7.62995 23.0494 7.2108 23.0559L7.19896 22.297C7.2108 23.0559 7.21104 23.0559 7.2108 23.0559L7.20848 23.0559L7.20497 23.056L7.19441 23.0561C7.18583 23.0561 7.17416 23.0562 7.15956 23.0561C7.13037 23.056 7.08941 23.0556 7.03788 23.0543C6.9349 23.0518 6.78924 23.046 6.61052 23.0329C6.25419 23.0068 5.76059 22.9513 5.2086 22.8329C4.12724 22.601 2.71218 22.1045 1.71748 21.0047C1.43629 20.6937 1.4604 20.2138 1.77131 19.9326" fill="#5B4F48"/>
<path fill-rule="evenodd" clip-rule="evenodd" d="M3.97366 18.604C4.36434 18.4521 4.80425 18.6456 4.95624 19.0362C5.26327 19.8254 5.88291 20.4697 6.47484 20.9335C6.76501 21.1609 7.03444 21.334 7.22986 21.4494C7.32722 21.5068 7.40523 21.5494 7.45703 21.5767C7.48291 21.5903 7.50215 21.6001 7.51391 21.606L7.52579 21.6119C7.52665 21.6123 7.52715 21.6125 7.52726 21.6126L7.52641 21.6122C7.90451 21.7928 8.06446 22.2455 7.88405 22.6237C7.70359 23.0021 7.25056 23.1625 6.8722 22.9821L7.19896 22.297C6.8722 22.9821 6.87241 22.9822 6.8722 22.9821L6.87022 22.9811L6.86744 22.9798L6.85948 22.9759C6.85313 22.9728 6.8447 22.9687 6.83431 22.9634C6.81353 22.953 6.78486 22.9384 6.74921 22.9196C6.67796 22.8821 6.57851 22.8277 6.4582 22.7567C6.21829 22.6151 5.89156 22.4051 5.53845 22.1284C4.84382 21.584 3.98841 20.7355 3.54147 19.5866C3.38948 19.196 3.58298 18.756 3.97366 18.604Z" fill="#5B4F48"/>
<path fill-rule="evenodd" clip-rule="evenodd" d="M1.04907 22.4136C1.19705 22.0214 1.63496 21.8234 2.02718 21.9714C3.41958 22.4967 4.44779 22.4936 5.09811 22.3846C5.42637 22.3296 5.6665 22.2462 5.8159 22.1825C5.89071 22.1506 5.94289 22.1236 5.97203 22.1076C5.98651 22.0996 5.99528 22.0943 5.99828 22.0924C6.34471 21.865 6.81065 21.9576 7.04345 22.302C7.27823 22.6493 7.18701 23.1211 6.83972 23.3559L6.41463 22.7271C6.83972 23.3559 6.8393 23.3562 6.83887 23.3565L6.83799 23.3571L6.83609 23.3583L6.83183 23.3612L6.8214 23.368C6.81361 23.373 6.80412 23.379 6.79296 23.3859C6.77063 23.3996 6.74156 23.4168 6.70579 23.4365C6.63427 23.476 6.53587 23.5259 6.41103 23.5791C6.16115 23.6855 5.80575 23.8052 5.34905 23.8818C4.42944 24.0359 3.12995 24.01 1.49129 23.3917C1.09908 23.2437 0.901087 22.8058 1.04907 22.4136Z" fill="#5B4F48"/>
<path d="M16.3731 36.487C15.8519 36.487 10.6551 36.3706 7.70495 31.8721C4.69413 27.2774 6.32858 22.2274 6.39942 22.0148C6.55629 21.5493 7.05219 21.3013 7.51773 21.4582C7.98327 21.6151 8.23122 22.116 8.07941 22.5765C8.06423 22.622 6.65243 27.0447 9.18254 30.9006C11.657 34.6755 16.2517 34.716 16.3832 34.716H16.3933C16.8791 34.716 17.2738 35.1056 17.2789 35.5914C17.2839 36.0771 16.8943 36.482 16.4085 36.487C16.4035 36.487 16.3883 36.487 16.3731 36.487Z" fill="#5B4F48"/>
<path d="M7.16352 23.0623C6.71316 23.0623 3.51004 22.9915 1.71873 21.0129C1.43536 20.7043 1.46066 20.2236 1.77439 19.9402C2.08306 19.6619 2.56378 19.6821 2.84716 19.9958C4.26908 21.5696 7.16352 21.5392 7.18882 21.5443C7.61387 21.5392 7.95291 21.8732 7.95797 22.2932C7.96303 22.7132 7.62906 23.0573 7.21412 23.0623C7.20906 23.0623 7.18882 23.0623 7.16858 23.0623H7.16352Z" fill="#5B4F48"/>
<path d="M7.19894 23.0623C7.08762 23.0623 6.97629 23.037 6.87509 22.9864C6.77388 22.9358 4.39558 21.7821 3.54547 19.586C3.39366 19.1963 3.58595 18.7561 3.98065 18.6043C4.37534 18.4525 4.81052 18.6448 4.96233 19.0395C5.58979 20.6537 7.51267 21.6101 7.52785 21.6151C7.90737 21.7973 8.0693 22.2476 7.88713 22.6272C7.75556 22.9004 7.48737 23.0573 7.204 23.0573L7.19894 23.0623Z" fill="#5B4F48"/>
<path d="M4.35509 23.963C3.57076 23.963 2.60932 23.8213 1.49101 23.3963C1.10138 23.2495 0.898969 22.8093 1.05078 22.4197C1.19752 22.025 1.63776 21.8276 2.0274 21.9794C4.59798 22.951 5.93894 22.1363 5.99966 22.1009C6.34882 21.8782 6.81942 21.9794 7.04712 22.3235C7.27483 22.6727 7.18375 23.1331 6.83966 23.3659C6.78905 23.4013 5.92376 23.9681 4.36015 23.9681L4.35509 23.963Z" fill="#5B4F48"/>
<path d="M34.8548 8.96528C35.0825 9.15251 35.3406 9.27902 35.5025 9.43588C42.3288 14.4809 46.2707 24.6823 45.714 37.4239C45.1625 50.3274 40.2541 60.1696 32.8915 64.5213C32.765 64.6175 32.5423 64.749 32.35 64.8199C29.6378 66.3076 26.6269 67.0869 23.3479 66.9452L23.2821 66.9148C15.2364 66.3886 9.09331 59.7546 9.5639 52.1592C9.75113 49.4571 10.6417 46.7752 12.1851 44.4019C15.5198 39.3063 15.8436 32.8394 12.9391 27.4452C11.5829 24.9556 10.9049 22.2332 11.0212 19.5006C11.2641 11.8749 17.9284 5.83301 25.9691 6.03542C25.9691 6.03542 26.0349 6.06578 26.0653 6C29.3139 6.21253 32.2589 7.22963 34.8548 8.96022V8.96528Z" fill="#E5A72C"/>
<path fill-rule="evenodd" clip-rule="evenodd" d="M12.471 26.5193C12.3931 26.3348 12.3114 26.1512 12.2259 25.9685C11.3493 23.8967 10.9275 21.702 11.0212 19.5006C11.2641 11.8749 17.9284 5.83301 25.9691 6.03542C25.9691 6.03542 26.0349 6.06578 26.0652 6C29.3139 6.21253 32.2589 7.22963 34.8548 8.96022V8.96528C34.9602 9.05195 35.0722 9.12561 35.178 9.19529C35.3009 9.27614 35.4156 9.35163 35.5025 9.43588C42.3288 14.4809 46.2707 24.6823 45.714 37.4239C45.5263 41.8169 44.8335 45.855 43.7109 49.4424C41.2981 55.0504 37.6401 59.3186 33.1163 61.7942C32.9797 61.8904 32.7368 62.0219 32.5344 62.0928C29.6147 63.5754 26.3761 64.3496 22.8391 64.1978L22.7682 64.1674C17.5079 63.8389 12.9987 61.2629 10.3758 57.5908C9.74146 55.8937 9.44635 54.0565 9.5639 52.1592C9.75113 49.4571 10.6417 46.7752 12.1851 44.4019C15.5198 39.3063 15.8436 32.8394 12.9391 27.4452C12.7728 27.1399 12.6167 26.8311 12.471 26.5193Z" fill="url(#paint0_radial_1041_5200)"/>
<path opacity="0.45" d="M23.7711 8.28019C20.4263 8.24477 17.1726 10.1575 15.5938 13.1127C15.0979 14.0438 16.5097 14.8736 17.0107 13.9426C18.3264 11.4782 20.9779 9.8944 23.7762 9.9197C24.8338 9.92982 24.8338 8.29031 23.7762 8.28019H23.7711Z" fill="white"/>
<path fill-rule="evenodd" clip-rule="evenodd" d="M14.1438 40.9691C15.3707 37.6259 15.4956 33.9759 14.4715 30.548C16.4635 30.8122 18.1432 32.7912 18.39 35.3403C18.6687 38.2193 17.014 40.7353 14.6941 40.9599C14.509 40.9778 14.3254 40.9806 14.1438 40.9691Z" fill="#FFE9BE"/>
<path d="M42.3776 37.2803C42.0689 37.2803 41.8817 37.255 41.8462 37.2499C41.325 37.174 40.9658 36.6933 41.0417 36.1771C41.1176 35.661 41.5932 35.2967 42.1144 35.3726C42.251 35.3877 45.6667 35.7571 49.3809 31.4155C51.8553 28.5261 51.4961 24.3717 51.4961 24.3261C51.4455 23.8049 51.83 23.3444 52.3512 23.2938C52.8674 23.2432 53.3329 23.6278 53.3835 24.149C53.4038 24.3514 53.8136 29.1536 50.823 32.6451C47.2354 36.84 43.6932 37.2752 42.3776 37.2752V37.2803Z" fill="#5B4F48"/>
<path d="M52.3765 24.5842C52.1286 24.5842 51.8857 24.4627 51.7389 24.2401C51.5112 23.8909 51.6074 23.4203 51.9565 23.1876C51.9818 23.1724 54.3854 21.5632 54.6739 19.4633C54.7295 19.0483 55.1192 18.7599 55.529 18.8156C55.944 18.8712 56.2324 19.2558 56.1768 19.6707C55.7871 22.4538 52.9079 24.3717 52.7864 24.4526C52.6599 24.5386 52.5132 24.5791 52.3715 24.5791L52.3765 24.5842Z" fill="#5B4F48"/>
<path d="M52.3715 24.5842C52.2399 24.5842 52.1083 24.5487 51.9869 24.4779C51.6276 24.2654 51.5011 23.7998 51.7136 23.4405C51.7238 23.4254 52.7813 21.5683 52.3867 19.868C52.2905 19.4582 52.5486 19.0533 52.9534 18.9572C53.3633 18.8661 53.7681 19.1191 53.8642 19.5239C54.3905 21.8213 53.0748 24.1085 53.0192 24.2046C52.8775 24.4475 52.6245 24.5791 52.3614 24.5791L52.3715 24.5842Z" fill="#5B4F48"/>
<path opacity="0.45" d="M17.8151 30.0937C17.2939 30.0937 16.8132 29.7597 16.6462 29.2385C16.4388 28.5908 16.798 27.8976 17.4457 27.6952L17.6988 27.6142C18.3414 27.4067 19.0347 27.766 19.2421 28.4137C19.4496 29.0614 19.0903 29.7547 18.4426 29.9571L18.1896 30.038C18.0631 30.0785 17.9416 30.0988 17.8151 30.0988V30.0937Z" fill="#F07FB1"/>
<path opacity="0.45" d="M34.524 24.6843C34.0078 24.6843 33.522 24.3554 33.355 23.8342C33.1476 23.1865 33.5018 22.4933 34.1444 22.2858L34.4329 22.1947C35.0806 21.9872 35.7738 22.3415 35.9813 22.9841C36.1888 23.6318 35.8346 24.3251 35.1919 24.5325L34.9035 24.6236C34.777 24.6641 34.6505 24.6843 34.524 24.6843Z" fill="#F07FB1"/>
<path opacity="0.5" d="M15.3711 19.2345C15.3356 19.2345 15.2951 19.2345 15.2597 19.2243C14.9258 19.1636 14.7031 18.8448 14.7638 18.5109C14.779 18.44 15.0927 16.8056 16.8385 15.9352C17.1421 15.7834 17.5115 15.9049 17.6633 16.2085C17.8151 16.5121 17.6937 16.8815 17.3901 17.0333C16.206 17.6253 15.9732 18.7234 15.9732 18.7335C15.9176 19.0321 15.6595 19.2395 15.3711 19.2395V19.2345Z" fill="#5B4F48"/>
<path opacity="0.5" d="M30.4353 13.9112C30.2936 13.9112 30.157 13.8656 30.0406 13.7695C29.9951 13.7341 29.145 13.061 27.8647 13.3495C27.5308 13.4254 27.2069 13.2179 27.131 12.8839C27.0551 12.555 27.2626 12.2261 27.5965 12.1502C29.5042 11.7251 30.7794 12.7878 30.8351 12.8333C31.0931 13.0509 31.1235 13.4406 30.9059 13.6986C30.7845 13.8403 30.6124 13.9162 30.4353 13.9162V13.9112Z" fill="#5B4F48"/>
<path d="M26.3568 26.9007C27.5257 26.0101 28.816 25.5344 29.8989 25.494C29.8686 25.2612 29.8433 25.0385 29.823 24.8361C29.7825 24.3908 29.3372 24.1024 28.9172 24.239C28.9172 24.239 27.3789 25.2005 25.8153 25.6306C24.2062 26.0759 22.9968 26.1568 22.9968 26.1568C22.5717 26.2935 22.3845 26.7894 22.6122 27.1739C23.0474 27.9127 23.4978 28.859 24.2062 29.5522C24.5958 28.6313 25.3346 27.68 26.3568 26.9007Z" fill="#4C3F38"/>
<path d="M24.2062 29.5522C24.9703 30.3062 26.038 30.7667 27.7129 30.3467C30.3948 29.6788 30.1165 27.2701 29.8989 25.494C28.811 25.5294 27.5257 26.0101 26.3568 26.9007C25.3346 27.68 24.5908 28.6313 24.2062 29.5522Z" fill="#FF8373"/>
<path d="M32.8946 19.5735C33.3702 21.041 33.1122 22.0075 31.8623 22.4123C31.0628 22.6703 29.8331 22.1846 29.3575 20.7171C28.8818 19.2496 28.9729 17.8986 30.1216 17.5292C31.417 17.1092 32.4189 18.101 32.8946 19.5735Z" fill="#4C3F38"/>
<path d="M30.243 20.1909C30.5532 20.1909 30.8047 19.9394 30.8047 19.6292C30.8047 19.319 30.5532 19.0675 30.243 19.0675C29.9328 19.0675 29.6813 19.319 29.6813 19.6292C29.6813 19.9394 29.9328 20.1909 30.243 20.1909Z" fill="white"/>
<path d="M20.5831 23.5609C21.0587 25.0284 20.8007 25.9949 19.5508 26.3997C18.7513 26.6578 17.5216 26.172 17.046 24.7046C16.5703 23.2371 16.6614 21.886 17.8101 21.5166C19.1055 21.0966 20.1074 22.0884 20.5831 23.5609Z" fill="#4C3F38"/>
<path d="M17.9265 24.1783C18.2367 24.1783 18.4881 23.9269 18.4881 23.6166C18.4881 23.3064 18.2367 23.055 17.9265 23.055C17.6163 23.055 17.3648 23.3064 17.3648 23.6166C17.3648 23.9269 17.6163 24.1783 17.9265 24.1783Z" fill="white"/>
</g>
<defs>
<radialGradient id="paint0_radial_1041_5200" cx="0" cy="0" r="1" gradientTransform="matrix(-2.9005 42.5111 -25.4179 -1.64014 22.4559 21.7055)" gradientUnits="userSpaceOnUse">
<stop stop-color="#FFD985"/>
<stop offset="0.616022" stop-color="#FFD985"/>
<stop offset="1" stop-color="#E5A72C"/>
</radialGradient>
<clipPath id="clip0_1041_5200">
<rect width="52" height="52" rx="26" fill="white"/>
</clipPath>
</defs>
</svg>
