<svg width="52" height="52" viewBox="0 0 52 52" fill="none" xmlns="http://www.w3.org/2000/svg">
<g clip-path="url(#clip0_1041_5199)">
<rect width="52" height="52" rx="26" fill="#FEEFBD"/>
<path d="M16.0976 39.7861C15.192 39.7861 10.8408 38.9614 8.71076 35.8853C6.63636 32.8951 7.1322 28.8222 10.1831 23.7829C10.4563 23.3326 11.0381 23.1909 11.4884 23.4642C11.9387 23.7374 12.0804 24.3192 11.8072 24.7695C9.38874 28.7615 8.7563 31.949 9.93011 34.2358C11.4783 37.2614 15.8194 37.8686 16.0825 37.8989C16.5176 37.9141 16.8971 38.2278 16.978 38.673C17.0741 39.1891 16.7351 39.6849 16.2191 39.7811C16.1887 39.7861 16.1482 39.7912 16.0976 39.7912V39.7861Z" fill="#5B4F48"/>
<path d="M10.6739 25.574C10.4917 25.574 10.3146 25.5234 10.1527 25.4121C10.0465 25.3412 7.54202 23.5856 7.18785 20.4386C7.13219 19.9326 7.49648 19.4773 8.00243 19.4216C8.50838 19.3659 8.96374 19.7302 9.01939 20.2362C9.27743 22.5534 11.1747 23.879 11.195 23.8942C11.6149 24.1826 11.7212 24.7543 11.4328 25.1743C11.2557 25.4323 10.9673 25.574 10.6739 25.574Z" fill="#5B4F48"/>
<path d="M11.1393 25.1034C10.9066 25.1034 10.6739 25.0174 10.4917 24.8353C10.4108 24.7543 8.50332 22.8165 9.09023 19.6493C9.1813 19.1484 9.66701 18.8144 10.1628 18.9106C10.6637 19.0016 10.9926 19.4823 10.9015 19.9832C10.4968 22.1638 11.7414 23.4743 11.7971 23.5299C12.1512 23.8942 12.1462 24.476 11.7869 24.8302C11.6048 25.0073 11.3721 25.0984 11.1343 25.0984L11.1393 25.1034Z" fill="#5B4F48"/>
<path d="M9.62653 25.8573C9.47475 25.8573 9.3179 25.8168 9.17624 25.7359C9.11046 25.6954 7.50154 24.7644 6.03934 22.2397C5.78636 21.7996 5.93309 21.2329 6.37327 20.9799C6.81344 20.7269 7.38011 20.8737 7.63309 21.3138C8.82207 23.368 10.0819 24.1269 10.092 24.132C10.5271 24.39 10.6789 24.9516 10.4259 25.3918C10.2539 25.6853 9.94528 25.8522 9.62653 25.8522V25.8573Z" fill="#5B4F48"/>
<path d="M31.7495 8.13756C31.9924 8.30452 32.2656 8.40571 32.4427 8.54738C39.7031 12.939 44.5754 22.7292 45.2028 35.464C45.8504 48.3607 41.8787 58.6163 34.9471 63.6303C34.8308 63.7416 34.6183 63.8934 34.4361 63.9743C31.876 65.7047 28.9465 66.7621 25.668 66.924L25.6022 66.8987C17.5424 67.1213 10.8133 61.0853 10.5755 53.4809C10.5097 50.7741 11.1522 48.0217 12.4677 45.5172C15.3162 40.1339 15.0379 33.6678 11.643 28.5679C10.0645 26.2152 9.1335 23.5691 9.00195 20.8319C8.53648 13.2224 14.6079 6.58935 22.6323 6.04798C22.6323 6.04798 22.698 6.07328 22.7233 6.0075C25.9766 5.91643 29.0022 6.65512 31.7495 8.13756Z" fill="#E5A72C"/>
<path fill-rule="evenodd" clip-rule="evenodd" d="M44.4211 47.1436C42.5658 53.1863 39.2577 57.9557 34.8611 60.9234C34.7346 61.0347 34.507 61.1865 34.3096 61.2725C31.5421 63.0181 28.3849 64.0907 24.8534 64.2677L24.7826 64.2425C19.6034 64.3994 14.9482 62.3274 11.9886 59.0157C11.1387 57.332 10.6373 55.4595 10.5755 53.4809C10.5097 50.7741 11.1522 48.0217 12.4677 45.5172C15.3162 40.1339 15.0379 33.6678 11.643 28.5679C10.0644 26.2152 9.1335 23.5691 9.00195 20.8319C8.53648 13.2224 14.6079 6.58935 22.6323 6.04798C22.6323 6.04798 22.698 6.07328 22.7233 6.0075C25.9766 5.91643 29.0022 6.65512 31.7495 8.13756C31.8643 8.21648 31.9859 8.28071 32.1009 8.34146C32.2292 8.40923 32.3493 8.47268 32.4427 8.54738C39.7031 12.939 44.5754 22.7292 45.2028 35.464C45.4138 39.6678 45.1341 43.5911 44.4211 47.1436Z" fill="url(#paint0_radial_1041_5199)"/>
<path opacity="0.45" d="M20.4921 8.52209C17.0314 8.80542 14.0159 11.0316 12.6752 14.2242C12.5031 14.634 12.8573 15.1247 13.2469 15.231C13.7174 15.3625 14.0817 15.0691 14.2537 14.6593C15.2909 12.1902 17.8662 10.3789 20.4921 10.1614C20.9323 10.1259 21.3117 9.81226 21.3117 9.34173C21.3117 8.92685 20.9373 8.48667 20.4921 8.52209Z" fill="white"/>
<path fill-rule="evenodd" clip-rule="evenodd" d="M13.8595 41.9646C14.7727 38.5225 14.5595 34.8775 13.2219 31.5597C15.2275 31.641 17.0804 33.4546 17.562 35.9672C18.1064 38.8076 16.6923 41.4658 14.4035 41.9045C14.2219 41.9393 14.0403 41.9591 13.8595 41.9646Z" fill="#FFE9BE"/>
<path d="M41.9166 35.0536C41.5321 35.0536 41.1729 34.8208 41.0312 34.4363C40.8491 33.9455 41.0919 33.3991 41.5827 33.2119C41.5979 33.2068 43.2574 32.5694 44.7044 31.2488C46.5056 29.6045 47.1684 27.6768 46.6675 25.5215C45.6657 21.2108 38.5521 19.9813 38.4812 19.9712C37.9651 19.8852 37.616 19.3994 37.7021 18.8783C37.7881 18.3622 38.2738 18.0081 38.7898 18.0992C39.1339 18.1548 47.2291 19.5462 48.5193 25.0914C49.7943 30.5759 44.9776 33.9658 42.2556 34.9929C42.1443 35.0333 42.033 35.0536 41.9217 35.0536H41.9166Z" fill="#5B4F48"/>
<path d="M39.1035 20.1128C38.977 20.1128 38.8506 20.0875 38.7291 20.0319C38.2637 19.8244 38.0562 19.278 38.2637 18.8125C38.2687 18.7923 39.1895 16.6471 38.2131 14.5575C37.9955 14.0971 38.1979 13.5456 38.6583 13.3331C39.1187 13.1206 39.6702 13.3179 39.8827 13.7783C41.2235 16.6471 39.9991 19.445 39.9434 19.5664C39.7916 19.9105 39.4526 20.1128 39.1035 20.1128Z" fill="#5B4F48"/>
<path d="M38.461 19.956C38.3901 19.956 38.3142 19.9459 38.2384 19.9307C37.7425 19.8093 37.439 19.3084 37.5654 18.8176C37.5806 18.7518 37.9601 16.986 36.4776 15.3316C36.1387 14.9521 36.169 14.3703 36.5485 14.0313C36.9279 13.6923 37.5098 13.7227 37.8488 14.1021C39.9991 16.5003 39.3818 19.1465 39.3514 19.2578C39.2503 19.6777 38.8708 19.961 38.4559 19.961L38.461 19.956Z" fill="#5B4F48"/>
<path d="M40.1407 19.8093C39.9889 19.8093 39.8372 19.7738 39.6955 19.6929C39.2503 19.445 39.0883 18.8834 39.3363 18.4381C39.3363 18.4331 40.0193 17.1328 39.9636 14.7599C39.9535 14.2489 40.3532 13.8289 40.8642 13.8188C41.3854 13.8188 41.7952 14.2084 41.8053 14.7194C41.8711 17.6337 40.9857 19.2679 40.9452 19.3387C40.7782 19.6423 40.4595 19.8143 40.1357 19.8143L40.1407 19.8093Z" fill="#5B4F48"/>
<path opacity="0.45" d="M15.3298 30.169C14.7833 30.169 14.2824 29.7996 14.1408 29.2431C13.9738 28.5853 14.3684 27.9175 15.0262 27.7454L15.2842 27.6797C15.942 27.5127 16.6098 27.9074 16.7818 28.5651C16.9488 29.2228 16.5542 29.8907 15.8964 30.0627L15.6384 30.1285C15.5372 30.1538 15.4309 30.169 15.3298 30.169Z" fill="#F07FB1"/>
<path opacity="0.45" d="M32.5169 25.7065C31.9705 25.7065 31.4747 25.3422 31.3279 24.7907C31.1559 24.1329 31.5505 23.46 32.2032 23.288L32.4967 23.2121C33.1494 23.0401 33.8273 23.4297 33.9993 24.0874C34.1714 24.7451 33.7767 25.4181 33.1241 25.5901L32.8306 25.666C32.7244 25.6913 32.6232 25.7065 32.5169 25.7065Z" fill="#F07FB1"/>
<path opacity="0.5" d="M13.9182 20.8341C13.6095 20.8341 13.3414 20.6014 13.306 20.2877C13.2705 19.9487 13.5134 19.6452 13.8473 19.6097C15.1932 19.458 15.3348 18.4258 15.3449 18.3094C15.3804 17.9755 15.6738 17.7276 16.0077 17.7529C16.3417 17.7833 16.5946 18.0716 16.5693 18.4056C16.5137 19.1493 15.9015 20.6166 13.9789 20.8291C13.9586 20.8291 13.9333 20.8291 13.908 20.8291L13.9182 20.8341Z" fill="#5B4F48"/>
<path opacity="0.5" d="M28.2517 16.8624C27.1589 16.8624 26.4759 16.2654 26.2229 15.8303C26.0509 15.5368 26.152 15.1624 26.4404 14.9904C26.7288 14.8235 27.1032 14.9145 27.2753 15.2029C27.336 15.294 27.8419 15.9871 29.2384 15.4104C29.552 15.2788 29.9113 15.4306 30.0428 15.7443C30.1744 16.058 30.0226 16.4172 29.7089 16.5488C29.1625 16.7764 28.6717 16.8675 28.2467 16.8675L28.2517 16.8624Z" fill="#5B4F48"/>
<path d="M30.9839 20.738C31.3735 22.2306 31.0598 23.1818 29.7898 23.5157C28.9753 23.7282 27.7812 23.1767 27.3866 21.6791C26.9919 20.1815 27.164 18.8458 28.3327 18.5371C29.6532 18.1931 30.5943 19.2404 30.9839 20.733V20.738Z" fill="#4C3F38"/>
<path d="M28.8032 22.7112C29.1134 22.7112 29.3648 22.4598 29.3648 22.1496C29.3648 21.8395 29.1134 21.588 28.8032 21.588C28.4931 21.588 28.2416 21.8395 28.2416 22.1496C28.2416 22.4598 28.4931 22.7112 28.8032 22.7112Z" fill="white"/>
<path d="M18.4616 24.0216C18.8512 25.5142 18.5375 26.4654 17.2675 26.7993C16.453 27.0118 15.2589 26.4603 14.8643 24.9627C14.4747 23.4702 14.6417 22.1294 15.8104 21.8208C17.1309 21.4767 18.072 22.524 18.4616 24.0166V24.0216Z" fill="#4C3F38"/>
<path d="M16.286 25.9949C16.5962 25.9949 16.8476 25.7434 16.8476 25.4332C16.8476 25.1231 16.5962 24.8716 16.286 24.8716C15.9758 24.8716 15.7244 25.1231 15.7244 25.4332C15.7244 25.7434 15.9758 25.9949 16.286 25.9949Z" fill="white"/>
<path d="M21.5479 28.9648H21.5378C21.1887 28.9597 20.9104 28.6713 20.9154 28.3222C20.9458 26.8044 21.9982 25.5192 23.5464 25.1246C25.044 24.7451 26.7642 25.3776 27.5434 26.602C27.7306 26.8954 27.6446 27.285 27.3511 27.4773C27.0577 27.6645 26.6631 27.5785 26.4759 27.285C25.9851 26.516 24.8315 26.1061 23.8601 26.3541C22.8735 26.607 22.2006 27.4064 22.1803 28.3475C22.1753 28.6916 21.8919 28.9698 21.5479 28.9698V28.9648Z" fill="#5B4F48"/>
</g>
<defs>
<radialGradient id="paint0_radial_1041_5199" cx="0" cy="0" r="1" gradientTransform="matrix(-2.90587 42.5485 -25.4649 -1.64158 21.9181 21.7193)" gradientUnits="userSpaceOnUse">
<stop stop-color="#FFD985"/>
<stop offset="0.616022" stop-color="#FFD985"/>
<stop offset="1" stop-color="#E5A72C"/>
</radialGradient>
<clipPath id="clip0_1041_5199">
<rect width="52" height="52" rx="26" fill="white"/>
</clipPath>
</defs>
</svg>
