<svg width="301" height="36" viewBox="0 0 301 36" fill="none" xmlns="http://www.w3.org/2000/svg">
<path d="M9.88 26.66H27.79L26.24 35.17H6.01C2.68 35.17 0 32.49 0 29.1V6.13C0 2.8 2.68 0.120003 6.01 0.120003H27.91L26.18 8.75H9.88V26.66Z" fill="#121616"/>
<path d="M59.14 6.13V29.1C59.14 32.49 56.4 35.17 53.07 35.17H36.53C33.2 35.17 30.52 32.49 30.52 29.1V6.13C30.52 2.8 33.2 0.120003 36.53 0.120003H53.07C56.4 0.120003 59.14 2.8 59.14 6.13ZM49.27 8.75H40.4V26.66H49.27V8.75Z" fill="#121616"/>
<path d="M97.05 0.0600052V35.17H87.17V18.63L80.03 32.91H79.91L73.01 18.57V35.17H63.13V8.63H60.63L62.24 0L73.01 0.0600052L79.97 12.73L87.11 0.0600052H97.05Z" fill="#121616"/>
<path d="M110.43 35.17H100.61V0.0600052H110.43V35.17Z" fill="#121616"/>
<path d="M123.05 26.66H140.96L139.41 35.17H119.18C115.85 35.17 113.17 32.49 113.17 29.1V6.13C113.17 2.8 115.85 0.120003 119.18 0.120003H141.08L139.35 8.75H123.05V26.66Z" fill="#121616"/>
<path d="M142.68 6.19C142.68 2.8 145.36 0.120003 148.69 0.120003H169.52L167.97 8.75H152.56V12.56L165.35 14.11C168.21 14.35 171.3 16.55 171.3 19.94V29.16C171.3 32.49 168.56 35.17 165.23 35.17H143.81L145.36 26.66H161.43V22.73L148.46 21.18C147.81 21.12 142.69 20.64 142.69 15.23V6.19H142.68Z" fill="#121616"/>
<path d="M204.09 6.13V18.15C204.09 21.48 201.41 24.16 198.08 24.16H185.47V35.17H175.65L175.59 8.69H173.03L174.64 0.0600052H198.08C201.41 0.0600052 204.09 2.8 204.09 6.13ZM194.27 8.69H185.4V15.65H194.27V8.69Z" fill="#0DA7BC"/>
<path d="M234.01 26.54L232.46 35.17H206.99V0.0600052H216.81V26.54H234.01Z" fill="#0DA7BC"/>
<path d="M264.84 0.0600052L264.78 35.17H242.29C238.96 35.17 236.22 32.49 236.22 29.16V0.0600052H246.1V26.54H254.97V0.0600052H264.85H264.84Z" fill="#0DA7BC"/>
<path d="M268.11 6.19C268.11 2.8 270.79 0.120003 274.12 0.120003H294.95L293.4 8.75H277.99V12.56L290.78 14.11C293.64 14.35 296.73 16.55 296.73 19.94V29.16C296.73 32.49 293.99 35.17 290.66 35.17H269.24L270.79 26.66H286.86V22.73L273.89 21.18C273.24 21.12 268.12 20.64 268.12 15.23V6.19H268.11Z" fill="#0DA7BC"/>
<path d="M298.17 5.52C296.9 5.52 295.87 4.49 295.87 3.22C295.87 1.95 296.9 0.920006 298.17 0.920006C299.44 0.920006 300.47 1.95 300.47 3.22C300.47 4.49 299.44 5.52 298.17 5.52ZM298.17 1.21C297.06 1.21 296.15 2.11 296.15 3.23C296.15 4.35 297.06 5.25 298.17 5.25C299.28 5.25 300.18 4.35 300.18 3.23C300.18 2.11 299.28 1.21 298.17 1.21Z" fill="#0DA7BC"/>
<path d="M297.19 4.46001V2.03H298.22C298.48 2.03 298.67 2.05001 298.79 2.10001C298.91 2.15001 299 2.22 299.07 2.33C299.14 2.44 299.18 2.57001 299.18 2.71001C299.18 2.89001 299.13 3.04 299.02 3.16C298.91 3.28 298.75 3.35 298.54 3.38C298.65 3.44 298.73 3.51 298.8 3.58C298.87 3.65 298.96 3.79 299.08 3.98L299.38 4.45H298.79L298.43 3.92C298.3 3.73 298.22 3.61 298.17 3.56C298.12 3.51 298.07 3.48001 298.02 3.46001C297.97 3.44001 297.89 3.43001 297.77 3.43001H297.67V4.45H297.18L297.19 4.46001ZM297.69 3.05H298.05C298.29 3.05 298.43 3.05 298.49 3.02C298.55 2.99 298.59 2.97 298.63 2.92C298.67 2.87 298.68 2.81001 298.68 2.74001C298.68 2.66001 298.66 2.59001 298.61 2.54001C298.56 2.49001 298.5 2.46 298.42 2.44C298.38 2.44 298.26 2.44 298.06 2.44H297.68V3.06L297.69 3.05Z" fill="#0DA7BC"/>
</svg>
