<svg width="486" height="144" viewBox="0 0 486 144" fill="none" xmlns="http://www.w3.org/2000/svg">
<path d="M39.6803 112.16L39.8403 130.88C39.9203 137.36 38.4003 139.2 31.9203 139.6L28.2403 139.84C21.8403 140.24 20.2403 138.96 20.1603 132.56L19.9203 111.6L2.48031 88.8C-1.27969 83.92 -0.639691 81.92 5.20031 79.92L11.9203 77.6C18.0803 75.52 20.2403 76.32 23.4403 82L32.6403 98.4L41.9203 81.92C44.9603 76.48 47.0403 75.68 53.0403 78C58.7203 80.16 59.3603 82.16 56.0803 87.2L39.6803 112.16Z" fill="#E37D2F"/>
<path d="M116.345 108C116.345 124.8 103.465 139.76 86.8253 139.76C70.3453 139.76 57.9453 125.28 57.9453 108.24C57.9453 90.96 70.5053 76 87.0653 76C103.945 76 116.345 90.32 116.345 108ZM87.2253 123.04C94.4253 123.04 98.5053 116.56 98.5053 109.2C98.5053 101.76 94.1853 95.44 87.4653 95.44C80.2653 95.44 75.2253 102 75.2253 109.44C75.2253 117.04 78.9853 123.04 87.2253 123.04Z" fill="#E37D2F"/>
<path d="M158.367 97.76C158.367 93.84 158.047 89.68 157.567 85.68C156.847 79.52 158.207 78.08 164.447 78.08H165.247C170.847 78.16 172.367 79.6 172.687 85.2C172.847 87.52 172.927 89.92 172.927 92.4C172.927 118.96 166.447 140.48 147.807 140.48C131.007 140.48 120.607 116 120.607 89.28C120.607 87.36 120.687 85.52 120.767 83.6C121.007 79.28 122.287 78.32 126.607 78.64L135.967 79.36C141.007 79.76 141.967 80.96 141.727 86C141.647 88 141.567 90.16 141.567 92.32C141.567 108.64 143.807 119.36 149.807 119.36C156.047 119.36 158.367 111.04 158.367 97.76Z" fill="#E37D2F"/>
<path d="M219.927 138.8C218.647 138.8 217.447 138.72 216.167 138.64C213.287 138.48 212.567 137.68 212.407 134.88L210.007 86.24C209.767 81.04 211.127 79.44 216.247 78.96C218.487 78.72 220.727 78.64 223.047 78.64C250.327 78.64 265.207 91.52 265.207 109.12C265.207 124 250.887 138.8 219.927 138.8ZM231.687 119.92C241.687 119.92 248.327 116.16 248.327 108.56C248.327 101.12 241.047 96.4 229.367 96.24L228.887 119.76C229.847 119.84 230.807 119.92 231.687 119.92Z" fill="#E37D2F"/>
<path d="M289.687 85.44L288.567 131.44C288.407 137.92 286.887 139.52 280.407 139.76L277.927 139.84C271.527 140.08 269.927 138.56 270.087 132.16L271.047 85.76C271.207 79.28 272.727 77.6 279.207 77.6H281.847C288.247 77.6 289.847 79.04 289.687 85.44Z" fill="#E37D2F"/>
<path d="M305.864 138.8C304.584 138.8 303.384 138.72 302.104 138.64C299.224 138.48 298.504 137.68 298.344 134.88L295.944 86.24C295.704 81.04 297.064 79.44 302.184 78.96C304.424 78.72 306.664 78.64 308.984 78.64C336.264 78.64 351.144 91.52 351.144 109.12C351.144 124 336.824 138.8 305.864 138.8ZM317.624 119.92C327.624 119.92 334.264 116.16 334.264 108.56C334.264 101.12 326.984 96.4 315.304 96.24L314.824 119.76C315.784 119.84 316.744 119.92 317.624 119.92Z" fill="#E37D2F"/>
<path d="M407.655 85.44L406.535 131.44C406.375 137.92 404.855 139.52 398.375 139.76L395.895 139.84C389.495 140.08 387.895 138.56 388.055 132.16L389.015 85.76C389.175 79.28 390.695 77.6 397.175 77.6H399.815C406.215 77.6 407.815 79.04 407.655 85.44Z" fill="#E37D2F"/>
<path d="M444.393 93.84L442.233 132.16C441.833 138.56 440.153 140 433.753 139.36L432.953 139.28C426.473 138.64 424.953 136.96 425.033 130.48L425.353 94.64L419.673 94.8C413.753 94.96 412.153 93.6 411.513 87.52C410.873 81.6 412.153 80.08 418.073 79.68L449.113 77.76C455.433 77.36 457.113 78.88 457.113 85.36C457.113 91.76 455.593 93.36 449.193 93.6L444.393 93.84Z" fill="#E37D2F"/>
<path d="M485.29 87.36L479.61 110.8C478.17 116.64 476.41 117.76 470.41 116.56C464.41 115.36 463.13 113.68 463.53 107.68L464.89 84.24C465.29 77.84 466.97 76.48 473.29 77.44L479.21 78.4C485.53 79.36 486.73 81.2 485.29 87.36ZM468.25 138.8C463.77 138.8 459.53 135.12 459.53 130C459.53 125.28 463.29 121.04 468.17 121.04C472.65 121.04 476.89 124.8 476.89 129.92C476.89 134.48 473.37 138.8 468.25 138.8Z" fill="#E37D2F"/>
<path d="M39.6803 115.16L39.8403 133.88C39.9203 140.36 38.4003 142.2 31.9203 142.6L28.2403 142.84C21.8403 143.24 20.2403 141.96 20.1603 135.56L19.9203 114.6L2.48031 91.8C-1.27969 86.92 -0.639691 84.92 5.20031 82.92L11.9203 80.6C18.0803 78.52 20.2403 79.32 23.4403 85L32.6403 101.4L41.9203 84.92C44.9603 79.48 47.0403 78.68 53.0403 81C58.7203 83.16 59.3603 85.16 56.0803 90.2L39.6803 115.16Z" fill="#E37D2F"/>
<path d="M116.345 111C116.345 127.8 103.465 142.76 86.8253 142.76C70.3453 142.76 57.9453 128.28 57.9453 111.24C57.9453 93.96 70.5053 79 87.0653 79C103.945 79 116.345 93.32 116.345 111ZM87.2253 126.04C94.4253 126.04 98.5053 119.56 98.5053 112.2C98.5053 104.76 94.1853 98.44 87.4653 98.44C80.2653 98.44 75.2253 105 75.2253 112.44C75.2253 120.04 78.9853 126.04 87.2253 126.04Z" fill="#E37D2F"/>
<path d="M158.367 100.76C158.367 96.84 158.047 92.68 157.567 88.68C156.847 82.52 158.207 81.08 164.447 81.08H165.247C170.847 81.16 172.367 82.6 172.687 88.2C172.847 90.52 172.927 92.92 172.927 95.4C172.927 121.96 166.447 143.48 147.807 143.48C131.007 143.48 120.607 119 120.607 92.28C120.607 90.36 120.687 88.52 120.767 86.6C121.007 82.28 122.287 81.32 126.607 81.64L135.967 82.36C141.007 82.76 141.967 83.96 141.727 89C141.647 91 141.567 93.16 141.567 95.32C141.567 111.64 143.807 122.36 149.807 122.36C156.047 122.36 158.367 114.04 158.367 100.76Z" fill="#E37D2F"/>
<path d="M219.927 141.8C218.647 141.8 217.447 141.72 216.167 141.64C213.287 141.48 212.567 140.68 212.407 137.88L210.007 89.24C209.767 84.04 211.127 82.44 216.247 81.96C218.487 81.72 220.727 81.64 223.047 81.64C250.327 81.64 265.207 94.52 265.207 112.12C265.207 127 250.887 141.8 219.927 141.8ZM231.687 122.92C241.687 122.92 248.327 119.16 248.327 111.56C248.327 104.12 241.047 99.4 229.367 99.24L228.887 122.76C229.847 122.84 230.807 122.92 231.687 122.92Z" fill="#E37D2F"/>
<path d="M289.687 88.44L288.567 134.44C288.407 140.92 286.887 142.52 280.407 142.76L277.927 142.84C271.527 143.08 269.927 141.56 270.087 135.16L271.047 88.76C271.207 82.28 272.727 80.6 279.207 80.6H281.847C288.247 80.6 289.847 82.04 289.687 88.44Z" fill="#E37D2F"/>
<path d="M305.864 141.8C304.584 141.8 303.384 141.72 302.104 141.64C299.224 141.48 298.504 140.68 298.344 137.88L295.944 89.24C295.704 84.04 297.064 82.44 302.184 81.96C304.424 81.72 306.664 81.64 308.984 81.64C336.264 81.64 351.144 94.52 351.144 112.12C351.144 127 336.824 141.8 305.864 141.8ZM317.624 122.92C327.624 122.92 334.264 119.16 334.264 111.56C334.264 104.12 326.984 99.4 315.304 99.24L314.824 122.76C315.784 122.84 316.744 122.92 317.624 122.92Z" fill="#E37D2F"/>
<path d="M407.655 88.44L406.535 134.44C406.375 140.92 404.855 142.52 398.375 142.76L395.895 142.84C389.495 143.08 387.895 141.56 388.055 135.16L389.015 88.76C389.175 82.28 390.695 80.6 397.175 80.6H399.815C406.215 80.6 407.815 82.04 407.655 88.44Z" fill="#E37D2F"/>
<path d="M444.393 96.84L442.233 135.16C441.833 141.56 440.153 143 433.753 142.36L432.953 142.28C426.473 141.64 424.953 139.96 425.033 133.48L425.353 97.64L419.673 97.8C413.753 97.96 412.153 96.6 411.513 90.52C410.873 84.6 412.153 83.08 418.073 82.68L449.113 80.76C455.433 80.36 457.113 81.88 457.113 88.36C457.113 94.76 455.593 96.36 449.193 96.6L444.393 96.84Z" fill="#E37D2F"/>
<path d="M485.29 90.36L479.61 113.8C478.17 119.64 476.41 120.76 470.41 119.56C464.41 118.36 463.13 116.68 463.53 110.68L464.89 87.24C465.29 80.84 466.97 79.48 473.29 80.44L479.21 81.4C485.53 82.36 486.73 84.2 485.29 90.36ZM468.25 141.8C463.77 141.8 459.53 138.12 459.53 133C459.53 128.28 463.29 124.04 468.17 124.04C472.65 124.04 476.89 127.8 476.89 132.92C476.89 137.48 473.37 141.8 468.25 141.8Z" fill="#E37D2F"/>
<path d="M39.6803 108.72L39.8403 127.44C39.9203 133.92 38.4003 135.76 31.9203 136.16L28.2403 136.4C21.8403 136.8 20.2403 135.52 20.1603 129.12L19.9203 108.16L2.48031 85.36C-1.27969 80.48 -0.639691 78.48 5.20031 76.48L11.9203 74.16C18.0803 72.08 20.2403 72.88 23.4403 78.56L32.6403 94.96L41.9203 78.48C44.9603 73.04 47.0403 72.24 53.0403 74.56C58.7203 76.72 59.3603 78.72 56.0803 83.76L39.6803 108.72Z" fill="#FFBC41"/>
<path d="M116.345 104.56C116.345 121.36 103.465 136.32 86.8253 136.32C70.3453 136.32 57.9453 121.84 57.9453 104.8C57.9453 87.52 70.5053 72.56 87.0653 72.56C103.945 72.56 116.345 86.88 116.345 104.56ZM87.2253 119.6C94.4253 119.6 98.5053 113.12 98.5053 105.76C98.5053 98.32 94.1853 92 87.4653 92C80.2653 92 75.2253 98.56 75.2253 106C75.2253 113.6 78.9853 119.6 87.2253 119.6Z" fill="#FFBC41"/>
<path d="M158.367 94.32C158.367 90.4 158.047 86.24 157.567 82.24C156.847 76.08 158.207 74.64 164.447 74.64H165.247C170.847 74.72 172.367 76.16 172.687 81.76C172.847 84.08 172.927 86.48 172.927 88.96C172.927 115.52 166.447 137.04 147.807 137.04C131.007 137.04 120.607 112.56 120.607 85.84C120.607 83.92 120.687 82.08 120.767 80.16C121.007 75.84 122.287 74.88 126.607 75.2L135.967 75.92C141.007 76.32 141.967 77.52 141.727 82.56C141.647 84.56 141.567 86.72 141.567 88.88C141.567 105.2 143.807 115.92 149.807 115.92C156.047 115.92 158.367 107.6 158.367 94.32Z" fill="#FFBC41"/>
<path d="M219.927 135.36C218.647 135.36 217.447 135.28 216.167 135.2C213.287 135.04 212.567 134.24 212.407 131.44L210.007 82.8C209.767 77.6 211.127 76 216.247 75.52C218.487 75.28 220.727 75.2 223.047 75.2C250.327 75.2 265.207 88.08 265.207 105.68C265.207 120.56 250.887 135.36 219.927 135.36ZM231.687 116.48C241.687 116.48 248.327 112.72 248.327 105.12C248.327 97.68 241.047 92.96 229.367 92.8L228.887 116.32C229.847 116.4 230.807 116.48 231.687 116.48Z" fill="#FFBC41"/>
<path d="M289.687 82L288.567 128C288.407 134.48 286.887 136.08 280.407 136.32L277.927 136.4C271.527 136.64 269.927 135.12 270.087 128.72L271.047 82.32C271.207 75.84 272.727 74.16 279.207 74.16H281.847C288.247 74.16 289.847 75.6 289.687 82Z" fill="#FFBC41"/>
<path d="M305.864 135.36C304.584 135.36 303.384 135.28 302.104 135.2C299.224 135.04 298.504 134.24 298.344 131.44L295.944 82.8C295.704 77.6 297.064 76 302.184 75.52C304.424 75.28 306.664 75.2 308.984 75.2C336.264 75.2 351.144 88.08 351.144 105.68C351.144 120.56 336.824 135.36 305.864 135.36ZM317.624 116.48C327.624 116.48 334.264 112.72 334.264 105.12C334.264 97.68 326.984 92.96 315.304 92.8L314.824 116.32C315.784 116.4 316.744 116.48 317.624 116.48Z" fill="#FFBC41"/>
<path d="M407.655 82L406.535 128C406.375 134.48 404.855 136.08 398.375 136.32L395.895 136.4C389.495 136.64 387.895 135.12 388.055 128.72L389.015 82.32C389.175 75.84 390.695 74.16 397.175 74.16H399.815C406.215 74.16 407.815 75.6 407.655 82Z" fill="#FFBC41"/>
<path d="M444.393 90.4L442.233 128.72C441.833 135.12 440.153 136.56 433.753 135.92L432.953 135.84C426.473 135.2 424.953 133.52 425.033 127.04L425.353 91.2L419.673 91.36C413.753 91.52 412.153 90.16 411.513 84.08C410.873 78.16 412.153 76.64 418.073 76.24L449.113 74.32C455.433 73.92 457.113 75.44 457.113 81.92C457.113 88.32 455.593 89.92 449.193 90.16L444.393 90.4Z" fill="#FFBC41"/>
<path d="M485.29 83.92L479.61 107.36C478.17 113.2 476.41 114.32 470.41 113.12C464.41 111.92 463.13 110.24 463.53 104.24L464.89 80.8C465.29 74.4 466.97 73.04 473.29 74L479.21 74.96C485.53 75.92 486.73 77.76 485.29 83.92ZM468.25 135.36C463.77 135.36 459.53 131.68 459.53 126.56C459.53 121.84 463.29 117.6 468.17 117.6C472.65 117.6 476.89 121.36 476.89 126.48C476.89 131.04 473.37 135.36 468.25 135.36Z" fill="#FFBC41"/>
<g filter="url(#filter0_dddd_2318_4410)">
<path d="M192.279 43.2911L185.297 49.6566C184.823 50.0891 184.086 50.0633 183.651 49.5988C183.478 49.4139 183.372 49.1774 183.35 48.9258L182.518 39.6287C182.484 39.2523 182.264 38.9178 181.931 38.7342L173.688 34.2007C173.128 33.8927 172.93 33.1932 173.247 32.6384C173.373 32.4174 173.57 32.2431 173.805 32.1423L182.52 28.4183C182.873 28.2675 183.129 27.9557 183.206 27.5845L185.093 18.4172C185.221 17.7943 185.836 17.3879 186.467 17.5094C186.718 17.5577 186.945 17.6865 187.114 17.8758L193.332 24.8713C193.583 25.1545 193.961 25.2964 194.342 25.2505L203.752 24.1183C204.391 24.0413 204.968 24.4896 205.041 25.1196C205.07 25.3704 205.015 25.6243 204.883 25.8421L200.011 33.8896C199.814 34.2155 199.791 34.6149 199.95 34.9578L203.878 43.4253C204.145 44.0006 203.886 44.6841 203.301 44.952C203.068 45.0586 202.806 45.0868 202.556 45.0321L193.327 43.0102C192.954 42.9283 192.562 43.0334 192.279 43.2911Z" fill="#FFBC41"/>
</g>
<g filter="url(#filter1_dddd_2318_4410)">
<path d="M292.021 43.0102L282.792 45.032C282.165 45.1694 281.539 44.7785 281.395 44.1589C281.337 43.9122 281.364 43.6544 281.47 43.4253L285.398 34.9577C285.557 34.6149 285.534 34.2154 285.337 33.8896L280.465 25.842C280.134 25.2953 280.313 24.5909 280.865 24.2688C281.085 24.1405 281.342 24.0876 281.596 24.1182L291.006 25.2505C291.387 25.2963 291.765 25.1545 292.016 24.8713L298.234 17.8758C298.657 17.4005 299.393 17.356 299.878 17.7765C300.071 17.944 300.204 18.1691 300.255 18.4172L302.142 27.5845C302.219 27.9557 302.475 28.2675 302.828 28.4182L311.543 32.1423C312.135 32.3953 312.411 33.0723 312.159 33.6542C312.059 33.886 311.883 34.0781 311.66 34.2007L303.417 38.7342C303.084 38.9177 302.864 39.2523 302.83 39.6287L301.998 48.9258C301.942 49.5575 301.376 50.0203 300.736 49.9595C300.48 49.9353 300.24 49.8288 300.051 49.6566L293.069 43.2911C292.786 43.0334 292.394 42.9283 292.021 43.0102Z" fill="#FFBC41"/>
</g>
<g filter="url(#filter2_dddd_2318_4410)">
<path d="M245.275 32.5161L234.849 37.8381C234.141 38.1997 233.265 37.9353 232.892 37.2475C232.744 36.9736 232.693 36.6598 232.747 36.3549L234.738 25.0828C234.819 24.6264 234.663 24.1606 234.321 23.8374L225.887 15.8545C225.314 15.3121 225.302 14.4213 225.861 13.8648C226.083 13.6433 226.375 13.4991 226.69 13.4546L238.346 11.81C238.818 11.7434 239.226 11.4556 239.437 11.0403L244.65 0.784622C245.004 0.0878023 245.873 -0.198296 246.59 0.145606C246.876 0.282549 247.108 0.507145 247.249 0.784622L252.461 11.0403C252.672 11.4556 253.08 11.7434 253.552 11.81L265.208 13.4546C266 13.5663 266.549 14.2803 266.434 15.0493C266.388 15.3555 266.24 15.6385 266.011 15.8545L257.577 23.8374C257.236 24.1606 257.08 24.6264 257.16 25.0828L259.151 36.3549C259.287 37.1208 258.757 37.8481 257.968 37.9795C257.654 38.0318 257.331 37.9821 257.049 37.8381L246.623 32.5161C246.201 32.3006 245.697 32.3006 245.275 32.5161Z" fill="#FFBC41"/>
</g>
<defs>
<filter id="filter0_dddd_2318_4410" x="173.096" y="17.4879" width="31.9526" height="36.4769" filterUnits="userSpaceOnUse" color-interpolation-filters="sRGB">
<feFlood flood-opacity="0" result="BackgroundImageFix"/>
<feColorMatrix in="SourceAlpha" type="matrix" values="0 0 0 0 0 0 0 0 0 0 0 0 0 0 0 0 0 0 127 0" result="hardAlpha"/>
<feOffset dy="4"/>
<feComposite in2="hardAlpha" operator="out"/>
<feColorMatrix type="matrix" values="0 0 0 0 0.890196 0 0 0 0 0.490196 0 0 0 0 0.184314 0 0 0 1 0"/>
<feBlend mode="normal" in2="BackgroundImageFix" result="effect1_dropShadow_2318_4410"/>
<feColorMatrix in="SourceAlpha" type="matrix" values="0 0 0 0 0 0 0 0 0 0 0 0 0 0 0 0 0 0 127 0" result="hardAlpha"/>
<feOffset dy="1"/>
<feComposite in2="hardAlpha" operator="out"/>
<feColorMatrix type="matrix" values="0 0 0 0 0.890196 0 0 0 0 0.490196 0 0 0 0 0.184314 0 0 0 1 0"/>
<feBlend mode="normal" in2="effect1_dropShadow_2318_4410" result="effect2_dropShadow_2318_4410"/>
<feColorMatrix in="SourceAlpha" type="matrix" values="0 0 0 0 0 0 0 0 0 0 0 0 0 0 0 0 0 0 127 0" result="hardAlpha"/>
<feOffset dy="2"/>
<feComposite in2="hardAlpha" operator="out"/>
<feColorMatrix type="matrix" values="0 0 0 0 0.890196 0 0 0 0 0.490196 0 0 0 0 0.184314 0 0 0 1 0"/>
<feBlend mode="normal" in2="effect2_dropShadow_2318_4410" result="effect3_dropShadow_2318_4410"/>
<feColorMatrix in="SourceAlpha" type="matrix" values="0 0 0 0 0 0 0 0 0 0 0 0 0 0 0 0 0 0 127 0" result="hardAlpha"/>
<feOffset dy="3"/>
<feComposite in2="hardAlpha" operator="out"/>
<feColorMatrix type="matrix" values="0 0 0 0 0.890196 0 0 0 0 0.490196 0 0 0 0 0.184314 0 0 0 1 0"/>
<feBlend mode="normal" in2="effect3_dropShadow_2318_4410" result="effect4_dropShadow_2318_4410"/>
<feBlend mode="normal" in="SourceGraphic" in2="effect4_dropShadow_2318_4410" result="shape"/>
</filter>
<filter id="filter1_dddd_2318_4410" x="280.299" y="17.488" width="31.9529" height="36.4768" filterUnits="userSpaceOnUse" color-interpolation-filters="sRGB">
<feFlood flood-opacity="0" result="BackgroundImageFix"/>
<feColorMatrix in="SourceAlpha" type="matrix" values="0 0 0 0 0 0 0 0 0 0 0 0 0 0 0 0 0 0 127 0" result="hardAlpha"/>
<feOffset dy="4"/>
<feComposite in2="hardAlpha" operator="out"/>
<feColorMatrix type="matrix" values="0 0 0 0 0.890196 0 0 0 0 0.490196 0 0 0 0 0.184314 0 0 0 1 0"/>
<feBlend mode="normal" in2="BackgroundImageFix" result="effect1_dropShadow_2318_4410"/>
<feColorMatrix in="SourceAlpha" type="matrix" values="0 0 0 0 0 0 0 0 0 0 0 0 0 0 0 0 0 0 127 0" result="hardAlpha"/>
<feOffset dy="1"/>
<feComposite in2="hardAlpha" operator="out"/>
<feColorMatrix type="matrix" values="0 0 0 0 0.890196 0 0 0 0 0.490196 0 0 0 0 0.184314 0 0 0 1 0"/>
<feBlend mode="normal" in2="effect1_dropShadow_2318_4410" result="effect2_dropShadow_2318_4410"/>
<feColorMatrix in="SourceAlpha" type="matrix" values="0 0 0 0 0 0 0 0 0 0 0 0 0 0 0 0 0 0 127 0" result="hardAlpha"/>
<feOffset dy="2"/>
<feComposite in2="hardAlpha" operator="out"/>
<feColorMatrix type="matrix" values="0 0 0 0 0.890196 0 0 0 0 0.490196 0 0 0 0 0.184314 0 0 0 1 0"/>
<feBlend mode="normal" in2="effect2_dropShadow_2318_4410" result="effect3_dropShadow_2318_4410"/>
<feColorMatrix in="SourceAlpha" type="matrix" values="0 0 0 0 0 0 0 0 0 0 0 0 0 0 0 0 0 0 127 0" result="hardAlpha"/>
<feOffset dy="3"/>
<feComposite in2="hardAlpha" operator="out"/>
<feColorMatrix type="matrix" values="0 0 0 0 0.890196 0 0 0 0 0.490196 0 0 0 0 0.184314 0 0 0 1 0"/>
<feBlend mode="normal" in2="effect3_dropShadow_2318_4410" result="effect4_dropShadow_2318_4410"/>
<feBlend mode="normal" in="SourceGraphic" in2="effect4_dropShadow_2318_4410" result="shape"/>
</filter>
<filter id="filter2_dddd_2318_4410" x="225.449" y="0" width="41" height="42" filterUnits="userSpaceOnUse" color-interpolation-filters="sRGB">
<feFlood flood-opacity="0" result="BackgroundImageFix"/>
<feColorMatrix in="SourceAlpha" type="matrix" values="0 0 0 0 0 0 0 0 0 0 0 0 0 0 0 0 0 0 127 0" result="hardAlpha"/>
<feOffset dy="4"/>
<feComposite in2="hardAlpha" operator="out"/>
<feColorMatrix type="matrix" values="0 0 0 0 0.890196 0 0 0 0 0.490196 0 0 0 0 0.184314 0 0 0 1 0"/>
<feBlend mode="normal" in2="BackgroundImageFix" result="effect1_dropShadow_2318_4410"/>
<feColorMatrix in="SourceAlpha" type="matrix" values="0 0 0 0 0 0 0 0 0 0 0 0 0 0 0 0 0 0 127 0" result="hardAlpha"/>
<feOffset dy="1"/>
<feComposite in2="hardAlpha" operator="out"/>
<feColorMatrix type="matrix" values="0 0 0 0 0.890196 0 0 0 0 0.490196 0 0 0 0 0.184314 0 0 0 1 0"/>
<feBlend mode="normal" in2="effect1_dropShadow_2318_4410" result="effect2_dropShadow_2318_4410"/>
<feColorMatrix in="SourceAlpha" type="matrix" values="0 0 0 0 0 0 0 0 0 0 0 0 0 0 0 0 0 0 127 0" result="hardAlpha"/>
<feOffset dy="2"/>
<feComposite in2="hardAlpha" operator="out"/>
<feColorMatrix type="matrix" values="0 0 0 0 0.890196 0 0 0 0 0.490196 0 0 0 0 0.184314 0 0 0 1 0"/>
<feBlend mode="normal" in2="effect2_dropShadow_2318_4410" result="effect3_dropShadow_2318_4410"/>
<feColorMatrix in="SourceAlpha" type="matrix" values="0 0 0 0 0 0 0 0 0 0 0 0 0 0 0 0 0 0 127 0" result="hardAlpha"/>
<feOffset dy="3"/>
<feComposite in2="hardAlpha" operator="out"/>
<feColorMatrix type="matrix" values="0 0 0 0 0.890196 0 0 0 0 0.490196 0 0 0 0 0.184314 0 0 0 1 0"/>
<feBlend mode="normal" in2="effect3_dropShadow_2318_4410" result="effect4_dropShadow_2318_4410"/>
<feBlend mode="normal" in="SourceGraphic" in2="effect4_dropShadow_2318_4410" result="shape"/>
</filter>
</defs>
</svg>
